<?xml version="1.0" encoding="utf-8"?>
<!-- Generator: Adobe Illustrator 24.1.3, SVG Export Plug-In . SVG Version: 6.00 Build 0)  -->
<svg version="1.1" id="Layer_1" xmlns="http://www.w3.org/2000/svg" xmlns:xlink="http://www.w3.org/1999/xlink" x="0px" y="0px"
	 viewBox="0 0 160 160" style="enable-background:new 0 0 160 160;" xml:space="preserve">
<style type="text/css">
	.st0{fill:url(#SVGID_1_);}
	.st1{fill:url(#SVGID_2_);}
	.st2{fill:#E6AF89;}
	.st3{fill:#FDC9A6;}
	.st4{fill:#07D6AF;}
	.st5{fill:#02C19D;}
</style>
<g>
	<g>
		
			<linearGradient id="SVGID_1_" gradientUnits="userSpaceOnUse" x1="35.9004" y1="117.8216" x2="115.8862" y2="117.8216" gradientTransform="matrix(1 0 0 -1 0 162)">
			<stop  offset="0" style="stop-color:#A19721"/>
			<stop  offset="0" style="stop-color:#A19721"/>
			<stop  offset="0.3706" style="stop-color:#D6C92C"/>
		</linearGradient>
		<path class="st0" d="M100.9,11.148c-4.755-1.63-9.892-1.52-14.463,0.311c-4.165,1.668-7.765,4.697-10.544,8.842
			c-2.779-4.145-6.378-7.174-10.544-8.842c-4.571-1.831-9.708-1.941-14.463-0.311c-9.043,3.101-17.39,13.025-14.348,27.485
			c1.147,5.452,3.919,10.928,8.239,16.275c3.404,4.213,7.776,8.363,12.996,12.333c8.843,6.726,16.974,10.576,17.316,10.737
			l0.804,0.378l0.804-0.378c0.342-0.161,8.472-4.01,17.316-10.737c5.22-3.97,9.593-8.12,12.997-12.333
			c4.32-5.347,7.092-10.823,8.239-16.275C118.29,24.173,109.943,14.249,100.9,11.148L100.9,11.148z"/>
		
			<linearGradient id="SVGID_2_" gradientUnits="userSpaceOnUse" x1="75.893" y1="117.822" x2="115.8859" y2="117.822" gradientTransform="matrix(1 0 0 -1 0 162)">
			<stop  offset="0" style="stop-color:#A19721"/>
			<stop  offset="1" style="stop-color:#D6C92C"/>
		</linearGradient>
		<path class="st1" d="M115.248,38.632c-1.148,5.452-3.919,10.928-8.239,16.273c-3.404,4.214-7.775,8.365-12.995,12.335
			c-8.844,6.726-16.973,10.578-17.315,10.735l-0.806,0.381V20.299c2.779-4.143,6.38-7.174,10.542-8.84
			c4.572-1.832,9.709-1.942,14.465-0.311C109.942,14.25,118.291,24.171,115.248,38.632L115.248,38.632z"/>
		<g>
			<path class="st2" d="M54.906,114.538l-27.284-20.51c-6.021-4.526-14.571-3.316-19.099,2.703
				c-4.531,6.023-3.32,14.579,2.705,19.107l23.253,17.477c7.957,5.986,17.644,9.223,27.602,9.223h72.816v-27.349L54.906,114.538z"/>
			<path class="st3" d="M134.899,117.336v-14.523l-13.42-0.111c-4.822-0.04-9.571-1.181-13.885-3.337
				c-2.417-1.208-5.083-1.837-7.785-1.837H60.388c-5.47,0-9.904,4.434-9.904,9.904s4.434,9.904,9.904,9.904H134.899z"/>
			<path class="st4" d="M114.237,91.29h39.98V150h-39.98V91.29z"/>
			<path class="st5" d="M114.238,117.335h39.98V150h-39.98C114.238,150,114.238,117.335,114.238,117.335z"/>
		</g>
	</g>
</g>
</svg>
