<?xml version="1.0" encoding="utf-8"?>
<!-- Generator: Adobe Illustrator 24.1.3, SVG Export Plug-In . SVG Version: 6.00 Build 0)  -->
<svg version="1.1" id="Layer_1" xmlns="http://www.w3.org/2000/svg" xmlns:xlink="http://www.w3.org/1999/xlink" x="0px" y="0px"
	 viewBox="0 0 632 590" style="enable-background:new 0 0 632 590;" xml:space="preserve">
<style type="text/css">
	.st0{fill:url(#SVGID_1_);}
	.st1{fill:url(#SVGID_2_);}
	.st2{fill:url(#SVGID_3_);}
	.st3{fill:url(#SVGID_4_);}
	.st4{fill:url(#SVGID_5_);}
	.st5{fill:url(#SVGID_6_);}
</style>
<g>
	<g>
		
			<linearGradient id="SVGID_1_" gradientUnits="userSpaceOnUse" x1="2.6736" y1="-38.9685" x2="571.8279" y2="-38.9685" gradientTransform="matrix(1 0 0 1 0 290)">
			<stop  offset="0" style="stop-color:#940A00"/>
			<stop  offset="0" style="stop-color:#A19721"/>
			<stop  offset="0.3397" style="stop-color:#D6C92C"/>
		</linearGradient>
		<path class="st0" d="M288.7,39.9c0,0-73-55-169-18c0,0-76,28-103,100c0,0-62,138,75,230l64-67c0,0,31-30,64,4c0,0,23,19,16,45
			c0,0,24-8,46,17c0,0,19,15,15,43c0,0,24-7,44,16c0,0,21,16,16,45c0,0,24-6,40,11c0,0,14,12,20,27c0,0,10,1,27-19c0,0,16-15,6-36
			l-144-144c0,0-2-3,0-5l3-3c0,0,1-2,4,1l144,144c0,0,17,11,35-5l15-15c0,0,11-14,3-33l-144-144c0,0-2-2,0-4l3-3c0,0,2-2,4,0
			l146,146c0,0,13,6,25-1c0,0,24-14,28-32c0,0,1-12-2-18c0,0-3-8-8-13l-188-187c0,0-3-3-10-4c0,0-7-1-12,4l-64,62c0,0-75,71-139,16
			c0,0-4-4-1-8l142-148C289.7,43.9,290.7,41.9,288.7,39.9z"/>
	</g>
	<g>
		
			<linearGradient id="SVGID_2_" gradientUnits="userSpaceOnUse" x1="102.2857" y1="52.426" x2="226.2307" y2="52.426" gradientTransform="matrix(1 0 0 1 0 290)">
			<stop  offset="0" style="stop-color:#940A00"/>
			<stop  offset="0" style="stop-color:#A19721"/>
			<stop  offset="0.3397" style="stop-color:#D6C92C"/>
		</linearGradient>
		<path class="st1" d="M112.7,338.9l51-50c0,0,23-23,49,6c0,0,26,23,6,48l-53,53c0,0-23,23-50-6C115.7,389.9,87.7,362.9,112.7,338.9
			z"/>
		
			<linearGradient id="SVGID_3_" gradientUnits="userSpaceOnUse" x1="164.2577" y1="113.556" x2="288.2027" y2="113.556" gradientTransform="matrix(1 0 0 1 0 290)">
			<stop  offset="0" style="stop-color:#940A00"/>
			<stop  offset="0" style="stop-color:#A19721"/>
			<stop  offset="0.3397" style="stop-color:#D6C92C"/>
		</linearGradient>
		<path class="st2" d="M174.6,400.1l51-50c0,0,23-23,49,6c0,0,26,23,6,48l-53,53c0,0-23,23-50-6
			C177.6,451.1,149.6,424.1,174.6,400.1z"/>
		
			<linearGradient id="SVGID_4_" gradientUnits="userSpaceOnUse" x1="225.2017" y1="176.177" x2="349.1468" y2="176.177" gradientTransform="matrix(1 0 0 1 0 290)">
			<stop  offset="0" style="stop-color:#940A00"/>
			<stop  offset="0" style="stop-color:#A19721"/>
			<stop  offset="0.3397" style="stop-color:#D6C92C"/>
		</linearGradient>
		<path class="st3" d="M235.6,462.7l51-50c0,0,23-23,49,6c0,0,26,23,6,48l-53,53c0,0-23,23-50-6
			C238.6,513.7,210.6,486.7,235.6,462.7z"/>
		
			<linearGradient id="SVGID_5_" gradientUnits="userSpaceOnUse" x1="284.1737" y1="234.307" x2="408.1187" y2="234.307" gradientTransform="matrix(1 0 0 1 0 290)">
			<stop  offset="0" style="stop-color:#940A00"/>
			<stop  offset="0" style="stop-color:#A19721"/>
			<stop  offset="0.3397" style="stop-color:#D6C92C"/>
		</linearGradient>
		<path class="st4" d="M294.6,520.8l51-50c0,0,23-23,49,6c0,0,26,23,6,48l-53,53c0,0-23,23-50-6
			C297.6,571.8,269.6,544.8,294.6,520.8z"/>
		
			<linearGradient id="SVGID_6_" gradientUnits="userSpaceOnUse" x1="157.669" y1="-126.7666" x2="629.3265" y2="-126.7666" gradientTransform="matrix(1 0 0 1 0 290)">
			<stop  offset="0" style="stop-color:#A19721"/>
			<stop  offset="1" style="stop-color:#D6C92C"/>
		</linearGradient>
		<path class="st5" d="M157.7,193.9l141-145c0,0,46-40,103-45c0,0,88-9,158,60c0,0,67,59,69,117c0,0,10,66-48,142c0,0-1,0-2-4
			c0,0-4-11-12-18l-186-185c0,0-7-7-16-7c0,0-12-1-17,5l-70,66C277.7,179.9,210.7,237.9,157.7,193.9z"/>
	</g>
</g>
</svg>
