<?xml version="1.0" encoding="utf-8"?>
<!-- Generator: Adobe Illustrator 24.1.3, SVG Export Plug-In . SVG Version: 6.00 Build 0)  -->
<svg version="1.1" id="Layer_1" xmlns="http://www.w3.org/2000/svg" xmlns:xlink="http://www.w3.org/1999/xlink" x="0px" y="0px"
	 viewBox="0 0 632 590" style="enable-background:new 0 0 632 590;" xml:space="preserve">
<style type="text/css">
	.st0{fill:url(#SVGID_1_);}
	.st1{fill:url(#SVGID_2_);}
	.st2{fill:url(#SVGID_3_);}
	.st3{fill:url(#SVGID_4_);}
	.st4{fill:url(#SVGID_5_);}
	.st5{fill:url(#SVGID_6_);}
</style>
<g>
	<g>
		
			<linearGradient id="SVGID_1_" gradientUnits="userSpaceOnUse" x1="2.6741" y1="338.9684" x2="571.8284" y2="338.9684" gradientTransform="matrix(1 0 0 -1 0 590)">
			<stop  offset="0" style="stop-color:#940A00"/>
			<stop  offset="0" style="stop-color:#121365"/>
			<stop  offset="0.3397" style="stop-color:#3133B2"/>
		</linearGradient>
		<path class="st0" d="M288.668,39.926c0,0-73-55-169-18c0,0-76,28-103,100c0,0-62,138,75,230l64-67c0,0,31-30,64,4c0,0,23,19,16,45
			c0,0,24-8,46,17c0,0,19,15,15,43c0,0,24-7,44,16c0,0,21,16,16,45c0,0,24-6,40,11c0,0,14,12,20,27c0,0,10,1,27-19c0,0,16-15,6-36
			l-144-144c0,0-2-3,0-5l3-3c0,0,1-2,4,1l144,144c0,0,17,11,35-5l15-15c0,0,11-14,3-33l-144-144c0,0-2-2,0-4l3-3c0,0,2-2,4,0
			l146,146c0,0,13,6,25-1c0,0,24-14,28-32c0,0,1-12-2-18c0,0-3-8-8-13l-188-187c0,0-3-3-10-4c0,0-7-1-12,4l-64,62c0,0-75,71-139,16
			c0,0-4-4-1-8l142-148C289.668,43.926,290.668,41.926,288.668,39.926z"/>
	</g>
	<g>
		
			<linearGradient id="SVGID_2_" gradientUnits="userSpaceOnUse" x1="102.2852" y1="247.5739" x2="226.2302" y2="247.5739" gradientTransform="matrix(1 0 0 -1 0 590)">
			<stop  offset="0.0084" style="stop-color:#121365"/>
			<stop  offset="1" style="stop-color:#3133B2"/>
		</linearGradient>
		<path class="st1" d="M112.669,338.926l51-50c0,0,23-23,49,6c0,0,26,23,6,48l-53,53c0,0-23,23-50-6
			C115.669,389.926,87.669,362.926,112.669,338.926z"/>
		
			<linearGradient id="SVGID_3_" gradientUnits="userSpaceOnUse" x1="164.2575" y1="186.4443" x2="288.2025" y2="186.4443" gradientTransform="matrix(1 0 0 -1 0 590)">
			<stop  offset="0.0084" style="stop-color:#121365"/>
			<stop  offset="1" style="stop-color:#3133B2"/>
		</linearGradient>
		<path class="st2" d="M174.641,400.056l51-50c0,0,23-23,49,6c0,0,26,23,6,48l-53,53c0,0-23,23-50-6
			C177.641,451.056,149.641,424.056,174.641,400.056z"/>
		
			<linearGradient id="SVGID_4_" gradientUnits="userSpaceOnUse" x1="225.2012" y1="123.8225" x2="349.1462" y2="123.8225" gradientTransform="matrix(1 0 0 -1 0 590)">
			<stop  offset="0.0084" style="stop-color:#121365"/>
			<stop  offset="1" style="stop-color:#3133B2"/>
		</linearGradient>
		<path class="st3" d="M235.585,462.677l51-50c0,0,23-23,49,6c0,0,26,23,6,48l-53,53c0,0-23,23-50-6
			C238.585,513.677,210.585,486.677,235.585,462.677z"/>
		
			<linearGradient id="SVGID_5_" gradientUnits="userSpaceOnUse" x1="284.1736" y1="65.6929" x2="408.1186" y2="65.6929" gradientTransform="matrix(1 0 0 -1 0 590)">
			<stop  offset="0.0084" style="stop-color:#121365"/>
			<stop  offset="1" style="stop-color:#3133B2"/>
		</linearGradient>
		<path class="st4" d="M294.557,520.807l51-50c0,0,23-23,49,6c0,0,26,23,6,48l-53,53c0,0-23,23-50-6
			C297.557,571.807,269.557,544.807,294.557,520.807z"/>
		
			<linearGradient id="SVGID_6_" gradientUnits="userSpaceOnUse" x1="157.6685" y1="426.7665" x2="629.326" y2="426.7665" gradientTransform="matrix(1 0 0 -1 0 590)">
			<stop  offset="0" style="stop-color:#121365"/>
			<stop  offset="0.2667" style="stop-color:#1F2084"/>
			<stop  offset="0.5442" style="stop-color:#292A9D"/>
			<stop  offset="0.7968" style="stop-color:#2F31AD"/>
			<stop  offset="1" style="stop-color:#3133B2"/>
		</linearGradient>
		<path class="st5" d="M157.669,193.926l141-145c0,0,46-40,103-45c0,0,88-9,158,60c0,0,67,59,69,117c0,0,10,66-48,142c0,0-1,0-2-4
			c0,0-4-11-12-18l-186-185c0,0-7-7-16-7c0,0-12-1-17,5l-70,66C277.668,179.926,210.669,237.926,157.669,193.926z"/>
	</g>
</g>
</svg>
