<?xml version="1.0" encoding="utf-8"?>
<!-- Generator: Adobe Illustrator 24.1.3, SVG Export Plug-In . SVG Version: 6.00 Build 0)  -->
<svg version="1.1" id="Layer_1" xmlns="http://www.w3.org/2000/svg" xmlns:xlink="http://www.w3.org/1999/xlink" x="0px" y="0px"
	 viewBox="0 0 900 972" style="enable-background:new 0 0 900 972;" xml:space="preserve">
<style type="text/css">
	.st0{fill:url(#SVGID_1_);}
	.st1{fill:url(#SVGID_2_);}
	.st2{fill:url(#SVGID_3_);}
	.st3{fill:url(#SVGID_4_);}
	.st4{fill:url(#SVGID_5_);}
	.st5{fill:url(#SVGID_6_);}
	.st6{fill:#252525;}
</style>
<g>
	<g>
		<g>
			
				<linearGradient id="SVGID_1_" gradientUnits="userSpaceOnUse" x1="138.1077" y1="-419.3396" x2="707.2621" y2="-419.3396" gradientTransform="matrix(1 0 0 1 0 672)">
				<stop  offset="0" style="stop-color:#940A00"/>
				<stop  offset="0" style="stop-color:#A19721"/>
				<stop  offset="0.3397" style="stop-color:#D6C92C"/>
			</linearGradient>
			<path class="st0" d="M424.1,41.6c0,0-73-55-169-18c0,0-76,28-103,100c0,0-62,138,75,230l64-67c0,0,31-30,64,4c0,0,23,19,16,45
				c0,0,24-8,46,17c0,0,19,15,15,43c0,0,24-7,44,16c0,0,21,16,16,45c0,0,24-6,40,11c0,0,14,12,20,27c0,0,10,1,27-19c0,0,16-15,6-36
				l-144-144c0,0-2-3,0-5l3-3c0,0,1-2,4,1l144,144c0,0,17,11,35-5l15-15c0,0,11-14,3-33l-144-144c0,0-2-2,0-4l3-3c0,0,2-2,4,0
				l146,146c0,0,13,6,25-1c0,0,24-14,28-32c0,0,1-12-2-18c0,0-3-8-8-13l-188-187c0,0-3-3-10-4c0,0-7-1-12,4l-64,62c0,0-75,71-139,16
				c0,0-4-4-1-8l142-148C425.1,45.6,426.1,43.6,424.1,41.6z"/>
		</g>
		<g>
			
				<linearGradient id="SVGID_2_" gradientUnits="userSpaceOnUse" x1="237.7188" y1="-327.9451" x2="361.6638" y2="-327.9451" gradientTransform="matrix(1 0 0 1 0 672)">
				<stop  offset="0" style="stop-color:#940A00"/>
				<stop  offset="0" style="stop-color:#A19721"/>
				<stop  offset="0.3397" style="stop-color:#D6C92C"/>
			</linearGradient>
			<path class="st1" d="M248.1,340.6l51-50c0,0,23-23,49,6c0,0,26,23,6,48l-53,53c0,0-23,23-50-6
				C251.1,391.6,223.1,364.6,248.1,340.6z"/>
			
				<linearGradient id="SVGID_3_" gradientUnits="userSpaceOnUse" x1="299.6911" y1="-266.8155" x2="423.6361" y2="-266.8155" gradientTransform="matrix(1 0 0 1 0 672)">
				<stop  offset="0" style="stop-color:#940A00"/>
				<stop  offset="0" style="stop-color:#A19721"/>
				<stop  offset="0.3397" style="stop-color:#D6C92C"/>
			</linearGradient>
			<path class="st2" d="M310.1,401.7l51-50c0,0,23-23,49,6c0,0,26,23,6,48l-53,53c0,0-23,23-50-6
				C313.1,452.7,285.1,425.7,310.1,401.7z"/>
			
				<linearGradient id="SVGID_4_" gradientUnits="userSpaceOnUse" x1="360.6348" y1="-204.1936" x2="484.5798" y2="-204.1936" gradientTransform="matrix(1 0 0 1 0 672)">
				<stop  offset="0" style="stop-color:#940A00"/>
				<stop  offset="0" style="stop-color:#A19721"/>
				<stop  offset="0.3397" style="stop-color:#D6C92C"/>
			</linearGradient>
			<path class="st3" d="M371,464.3l51-50c0,0,23-23,49,6c0,0,26,23,6,48l-53,53c0,0-23,23-50-6C374,515.3,346,488.3,371,464.3z"/>
			
				<linearGradient id="SVGID_5_" gradientUnits="userSpaceOnUse" x1="419.6071" y1="-146.064" x2="543.5521" y2="-146.064" gradientTransform="matrix(1 0 0 1 0 672)">
				<stop  offset="0" style="stop-color:#940A00"/>
				<stop  offset="0" style="stop-color:#A19721"/>
				<stop  offset="0.3397" style="stop-color:#D6C92C"/>
			</linearGradient>
			<path class="st4" d="M430,522.4l51-50c0,0,23-23,49,6c0,0,26,23,6,48l-53,53c0,0-23,23-50-6C433,573.4,405,546.4,430,522.4z"/>
			
				<linearGradient id="SVGID_6_" gradientUnits="userSpaceOnUse" x1="293.1021" y1="-507.1377" x2="764.7596" y2="-507.1377" gradientTransform="matrix(1 0 0 1 0 672)">
				<stop  offset="0" style="stop-color:#A19721"/>
				<stop  offset="1" style="stop-color:#D6C92C"/>
			</linearGradient>
			<path class="st5" d="M293.1,195.6l141-145c0,0,46-40,103-45c0,0,88-9,158,60c0,0,67,59,69,117c0,0,10,66-48,142c0,0-1,0-2-4
				c0,0-4-11-12-18l-186-185c0,0-7-7-16-7c0,0-12-1-17,5l-70,66C413.1,181.6,346.1,239.6,293.1,195.6z"/>
		</g>
	</g>
	<g>
		<path class="st6" d="M86.2,727.7c0,17.7-4,33.6-12.1,47.8c-9.7,16.9-22.7,25.3-39,25.3c-5.8,0-10.9-1.2-15.2-3.7
			c-2.4,2.5-4.7,3.7-6.9,3.7c-1.3,0-2.9-0.7-4.7-2.2c-2.3-6.3-3.4-14.7-3.4-25.2c0-9,0.3-22.6,0.8-40.7c0.5-18.1,0.8-31.6,0.8-40.7
			c0-0.2-0.1-0.6-0.2-1.2c-0.1-0.6-0.2-1-0.2-1.4c0-2,0.7-3.7,2.2-4.9c1.5-1.2,3.2-1.9,5.2-1.9c2.8,0,5.3,1,7.5,3
			c2.2,2,3,4.4,2.4,7.1c5.7-8.4,13.9-12.7,24.5-12.7c12.8,0,22.7,4.8,29.5,14.5C83.2,703.3,86.2,714.3,86.2,727.7z M69.5,727
			c0-23-6.7-34.5-20.2-34.5c-5.5,0-11,2.8-16.4,8.5c-4.7,5-8,10.3-9.7,16.1c-1.7,5.8-2.6,12.2-2.6,19.2v36.3
			c0,10.6,4.4,15.9,13.3,15.9c8,0,15.2-4.1,21.8-12.3c5.4-7,9.1-14.9,11.1-23.8C68.6,744.4,69.5,735.9,69.5,727z"/>
		<path class="st6" d="M158,764.4c0,10.1-2.5,18.8-7.6,26c-5.8,8.2-13.6,12.3-23.3,12.3c-9.9,0-17.4-3.4-22.4-10.1
			c-4.6-6-6.9-14.1-6.9-24.3c0-10.1,2.5-19.7,7.6-28.7c5.8-10.7,13.4-16,22.8-16c2.9,0,6.6,1.3,11,3.9
			C151.7,735,158,747.3,158,764.4z M143.2,764.1c0-17.2-4.2-25.8-12.5-25.8c-6,0-10.5,3.7-13.5,11c-2.2,5.5-3.4,11.8-3.4,18.7
			c0,15,4.4,22.4,13.3,22.4c5.7,0,10-3.1,12.8-9.3C142.1,776.4,143.2,770.7,143.2,764.1z"/>
		<path class="st6" d="M228.9,796.5c-1.7,2.6-3.8,3.9-6.2,3.9c-1.9,0-5.1-1.1-9.4-3.4v-2c0-2.5,0.1-6.1,0.2-11
			c0.1-4.8,0.2-8.4,0.2-10.6c0-24.1-3.6-36.1-10.7-36.1c-2,0-4.3,1.6-6.9,4.7c-7.9,9.7-11.9,21.3-11.9,34.9c0,1.9,0.4,4.8,1.1,8.5
			c0.7,3.8,1.1,6.6,1.1,8.5c0,1.6-0.7,2.9-2.2,3.9c-1.5,1-3,1.5-4.7,1.5c-6.7,0-10.1-4.3-10.1-12.8v-35.3c0-0.9,0.1-2.2,0.3-4
			c0.2-1.7,0.3-3.1,0.3-4c0-1.3-0.2-3.3-0.6-5.9c-0.4-2.6-0.6-4.5-0.6-5.7c0-1.8,1-3.5,3.1-5.1c2.1-1.6,4-2.4,5.7-2.4
			c2.5,0,5,1.4,7.6,4.2l-0.5,6.7c4.2-6.6,9.3-10,15.4-10c3.9,0,8.1,1.3,12.5,4c4.4,2.7,7.6,5.7,9.6,9.1c4.6,8.5,6.9,19.8,6.9,33.7
			L228.9,796.5L228.9,796.5L228.9,796.5z"/>
		<path class="st6" d="M301.1,769c0,14.5-0.5,24.7-1.3,30.7c-0.6,3.5-2.9,5.2-7.1,5.2c-6.3,0-9.1-3.2-8.4-9.4
			c-5.6,2.7-11.5,4-17.5,4c-5.8,0-11.4-1.5-16.7-4.4c-6.3-3.5-9.4-7.9-9.4-13.3c0-5.3,3.6-10.2,10.8-14.8c6.5-4.2,12.7-6.2,18.4-6.2
			H284v-4c0.1-11.7-3.4-17.6-10.5-17.6c-8.9,0-13.3,4.1-13.3,12.4c0,2.8-1.6,4.2-4.7,4.2c-1.9,0-3.9-0.9-6-2.6
			c-2.1-1.7-3.1-3.6-3.1-5.5c0-6.3,2.2-11.5,6.7-15.5c4.5-4,9.9-6.1,16.2-6.1C290.5,725.9,301.1,740.3,301.1,769z M284,775
			c0-2.2-1.7-3.4-5.1-3.4c-14.1,0-21.1,3.3-21.1,10c0,3.6,3.1,5.4,9.3,5.4c3.8,0,7.4-1.1,10.8-3.2C282,781.4,284,778.5,284,775z"/>
		<path class="st6" d="M382,737.3c0,3-4.6,5.2-13.8,6.4c-0.2,2.5-0.3,8.1-0.3,16.9v11.1c0,2.3,0.3,5.6,1,10s1,7.6,1,9.8
			c0,1.8-0.9,3.4-2.7,4.8c-1.8,1.4-3.6,2.1-5.4,2.1c-2.8,0-5.2-2.4-7.1-7.3c-1.5-3.7-2.2-7.3-2.2-10.8v-35.8
			c-5.2-0.8-8.2-1.3-8.9-1.5c-2.9-0.9-4.4-2.2-4.4-3.9c0-0.4,0.1-1,0.3-1.5c2.9-4.2,6.2-6.2,9.8-6.2c0.2,0,0.6,0,1,0
			c0.4,0.1,0.8,0.2,1,0.2c2.4,0,3.5-2.8,3.4-8.3v-12.3c-0.6-1.2-0.8-2.3-0.8-3.2c0-1.5,0.9-2.8,2.6-4s3.4-1.8,4.9-1.8
			c2.3,0,4.6,1.1,6.7,3.3c2.1,2.2,3.2,4.5,3.2,7c0,2.7-0.4,5.4-1.3,8c-0.8,2.6-1.2,5.4-1.1,8.2v0.7C377.6,730.1,382,732.8,382,737.3
			z"/>
		<path class="st6" d="M443.4,737.4c0,3.5-0.4,8.7-1.3,15.7c-0.8,7-1.3,12.3-1.3,15.9c0,3.1,0.1,7.8,0.4,14.1
			c0.3,6.2,0.4,10.9,0.4,13.9c0,2.6-2.2,3.9-6.6,3.9c-4.5,0-7.4-2.1-8.6-6.4c-4.3,2.8-8.4,4.2-12.5,4.2c-3.3,0-7-0.9-11.1-2.6
			c-4.2-1.7-7.1-3.9-8.8-6.3c-3.3-4.7-4.9-12.3-4.9-22.8c0-3.6,0.1-9.9,0.3-18.9c0.3-8,0.5-14.2,0.3-18.7c3.4-2.5,6.2-3.7,8.5-3.7
			c5.5,0,8.2,2.6,8.2,7.9c0,1.8-0.3,4.5-0.8,8.1c-0.6,3.6-0.8,6.3-0.8,8.1v23.8c0,2.7,0.7,5.5,2.2,8.4c1.8,3.4,3.9,5.1,6.4,5.1
			c4.8,0,8.4-3.1,10.8-9.3c1.6-4.3,2.4-9.4,2.4-15.5V742c0-2.6-0.7-5.8-2-9.6c2.8-2.6,5.5-3.9,8.1-3.9c2.7,0,5.1,0.8,7.3,2.5
			C442.3,732.7,443.4,734.8,443.4,737.4z"/>
		<path class="st6" d="M562.3,727.8c0,2.5-0.2,4.7-0.5,6.6c-4.4,26-16.7,39-36.9,39c-10.3,0-19.6-2.6-27.8-7.9v3.5
			c-0.1,7.5,0.6,12.7,2,15.5c2.1,3.9,3.2,6.2,3.2,6.7c0,2.3-0.9,4.2-2.6,5.9c-1.7,1.7-3.7,2.5-6,2.5c-5.1,0-8.5-1.8-10.3-5.4
			c-1-2.1-1.7-6.1-2-12c-0.2-3.8-0.3-8.2-0.3-13.2c0-1.9,0.3-4.8,0.8-8.6c0.5-3.8,0.8-6.7,0.8-8.8v-11.5c-0.1-3.4,0.1-8.3,0.7-14.9
			c0.6-6.6,0.8-11.4,0.8-14.6v-15.2c0-0.2-0.5-3.3-1.5-9.1c2.9-2.7,5.6-4,8.2-4c3,0,5.4,1.1,7.2,3.3c1.8,2.2,2.7,4.9,2.7,8
			c0,0.8,0,1.6,0,2.4c7.4-9.8,16.8-14.7,28.2-14.7c10.7,0,19.1,4,25.3,12c5.5,7.2,8.3,16.3,8.3,27.3c0,0.8,0,2,0,3.5
			C562.3,725.8,562.3,727,562.3,727.8z M547,725.1c0-7.8-1.2-14.4-3.5-19.9c-3.3-7.4-8.3-11.1-15-11.1c-8.7,0-16.1,5.3-22.3,15.9
			c-5.5,9.2-8.3,18.5-8.3,27.8c0,15.6,7.9,23.4,23.6,23.4c8.4,0,14.6-3.7,18.6-11c2.2-4,4.4-11.4,6.4-22.1
			C546.8,726,547,725,547,725.1z"/>
		<path class="st6" d="M593.2,793.1c0,2-0.8,3.7-2.4,5.1c-1.6,1.4-3.5,2.1-5.7,2.1c-7.1,0-10.6-9.3-10.6-27.8c0-8.4,0.1-21.1,0.3-38
			s0.3-29.5,0.3-38c0-1.3-0.2-3.3-0.5-5.9c-0.3-2.6-0.5-4.5-0.5-5.7c3.7-2.5,6.6-3.7,8.8-3.7c2.5,0,4.8,0.8,7.1,2.4
			c2.2,1.6,3.4,3.7,3.4,6.2c0,1.2-0.3,2.7-0.8,4.4c-0.8,2.7-1.2,4.2-1.3,4.4c-1.5,7-2.2,16.9-2.2,29.7c0,20.4,0,30.8,0,31.4
			c0.3,14.2,1.5,24.1,3.5,29.7C592.9,791,593.2,792.2,593.2,793.1z"/>
		<path class="st6" d="M661.2,769c0,14.5-0.5,24.7-1.3,30.7c-0.6,3.5-2.9,5.2-7.1,5.2c-6.3,0-9.1-3.2-8.4-9.4
			c-5.6,2.7-11.5,4-17.5,4c-5.8,0-11.4-1.5-16.7-4.4c-6.3-3.5-9.4-7.9-9.4-13.3c0-5.3,3.6-10.2,10.8-14.8c6.5-4.2,12.7-6.2,18.4-6.2
			h14.3v-4c0.1-11.7-3.4-17.6-10.5-17.6c-8.9,0-13.3,4.1-13.3,12.4c0,2.8-1.6,4.2-4.7,4.2c-1.9,0-3.9-0.9-6-2.6
			c-2.1-1.7-3.1-3.6-3.1-5.5c0-6.3,2.2-11.5,6.7-15.5c4.5-4,9.9-6.1,16.2-6.1C650.6,725.9,661.2,740.3,661.2,769z M644.2,775
			c0-2.2-1.7-3.4-5.1-3.4c-14.1,0-21.1,3.3-21.1,10c0,3.6,3.1,5.4,9.3,5.4c3.8,0,7.4-1.1,10.8-3.2
			C642.1,781.4,644.2,778.5,644.2,775z"/>
		<path class="st6" d="M729.7,780.6c0,5.3-2.3,9.9-6.7,13.8c-4.9,4.3-11.6,6.4-19.9,6.4c-3.6,0.1-7.5-0.6-11.6-2.2
			c-13.5-5.1-20.2-9.2-20.2-12.3c0-4.9,3.5-7.4,10.6-7.4c1,0,2.1,0.1,3.2,0.2c0.3,3.4,3,6.1,8.1,8.1c4.4,1.8,8.6,2.5,12.7,2.2
			c3.3-0.2,4.9-1.4,4.9-3.5c0-0.3-0.1-0.8-0.3-1.5s-0.3-1.2-0.3-1.6c0-0.4-2.1-1.3-6.4-2.6c-4.8-1.5-7.5-2.3-8.1-2.5
			c-12.8-7.6-19.2-16.9-19.2-27.7c0-6.5,1.9-12.5,5.6-18c4.2-6.1,9.3-9.1,15.5-9.1c4.6,0,9.9,1.8,15.8,5.4
			c5.9,3.6,9.5,7.5,10.9,11.6c0.9,2.9,1.3,5.3,1.3,7.3c0,2-0.3,3.7-0.8,5.1c-0.7,1.7-1.3,3.4-2,5.1c-2.1,1.5-4.3,2.2-6.4,2.2
			c-1.1,0-3-0.7-5.7-2.1c-2.6-1.4-4-2.6-4-3.6c0-0.4,0.7-1.9,2-4.4c0.8-1.5,1.2-2.7,1.2-3.7c0-6.7-2.6-10.1-7.9-10.1
			c-3.1,0-5.6,2-7.3,6.1c-1.2,3.1-1.9,6.5-1.9,10.1c0,4.5,3.2,8.5,9.6,12.1c5.8,2.6,11.8,5.2,17.7,7.9
			C726.5,774.6,729.7,777.6,729.7,780.6z"/>
		<path class="st6" d="M823.5,797.3c-3.8,2.4-6.7,3.5-8.7,3.5c-1.4,0-3.7-0.8-6.7-2.4c0-1.8,0-4.9,0-9.3c0-3.9,0-7,0-9.3
			c0-29.9-2.5-44.9-7.4-44.9c-3.7,0-6.6,4.6-8.9,13.7c-1.7,6.6-2.5,12.8-2.5,18.4v15.5c0,0.8,0.3,1.9,0.8,3.5
			c0.6,1.5,0.8,2.7,0.8,3.5c0,1.8-1,3.4-2.9,4.8c-1.9,1.4-3.8,2.1-5.6,2.1c-1.9,0-3.8-1-5.7-2.9c-1.9-1.9-2.9-3.8-2.9-5.6v-31.4
			c0-12.7-1.4-19.1-4.3-19.1c-0.5,0-1.4,1.1-2.9,3.2c-8.1,10.8-12.2,22.4-12.2,34.7c0,1.8,0.3,4.4,0.8,7.8c0.5,3.4,0.8,6,0.8,7.7
			c0,2.3-0.7,4.1-2.1,5.6c-1.4,1.5-3.2,2.2-5.5,2.2c-2.6,0-4.7-0.9-6.2-2.7c-0.6-0.8-1.2-3.4-2-7.9c-0.7-4.2-1-7-1-8.6v-36.7
			c0-2.7,0.7-6.3,2-10.8c1.7-5.4,3.5-8.1,5.4-8.1c2.2,0,4.3,0.9,6.1,2.6c1.8,1.7,2.6,3.7,2.4,5.9c3.3-5.4,7.5-8.1,12.7-8.1
			c6.4,0,11.6,4.3,15.7,12.8c2.1-5.1,4-8.5,5.7-10.5c2.8-3.3,6.3-4.9,10.5-4.9c4.2,0,8.4,2.2,12.7,6.6c7.4,7.5,11.1,20.4,11.1,38.6
			L823.5,797.3L823.5,797.3L823.5,797.3z"/>
		<path class="st6" d="M895.2,769c0,14.5-0.5,24.7-1.3,30.7c-0.6,3.5-2.9,5.2-7.1,5.2c-6.3,0-9.1-3.2-8.4-9.4
			c-5.6,2.7-11.5,4-17.5,4c-5.8,0-11.4-1.5-16.7-4.4c-6.3-3.5-9.4-7.9-9.4-13.3c0-5.3,3.6-10.2,10.8-14.8c6.5-4.2,12.7-6.2,18.4-6.2
			h14.3v-4c0.1-11.7-3.4-17.6-10.5-17.6c-8.9,0-13.3,4.1-13.3,12.4c0,2.8-1.6,4.2-4.7,4.2c-1.9,0-3.9-0.9-6-2.6
			c-2.1-1.7-3.1-3.6-3.1-5.5c0-6.3,2.2-11.5,6.7-15.5c4.5-4,9.9-6.1,16.2-6.1C884.6,725.9,895.2,740.3,895.2,769z M878.1,775
			c0-2.2-1.7-3.4-5.1-3.4c-14.1,0-21.1,3.3-21.1,10c0,3.6,3.1,5.4,9.3,5.4c3.8,0,7.4-1.1,10.8-3.2
			C876.1,781.4,878.1,778.5,878.1,775z"/>
		<path class="st6" d="M197.5,943c0,6.9-4,12.2-12,15.9c-6.3,3-13.3,4.6-21.1,4.6c-7.1,0-15.4-1.6-25-4.7
			c-11.8-4-17.7-8.8-17.7-14.2c0-2,0.7-3.8,2.2-5.2c1.5-1.5,3.2-2.2,5.2-2.2c3,0,5.8,1.2,8.4,3.7c4.4,3.7,6.7,5.7,7.1,6.1
			c3.9,2.3,11,3.4,21.3,3.4c9.1,0,13.7-2.1,13.7-6.2c0-3.5-4.3-8.3-12.8-14.5c-6-3.8-11.9-7.6-17.9-11.5
			c-7.6-5.2-13.2-10.1-16.7-14.7c-4.6-6.1-6.9-13-6.9-20.9c0-9.9,3-18.7,9.1-26.5c6.5-8.5,14.6-12.8,24.3-12.8
			c8.3,0,15.3,2.3,21.1,6.8s9.4,10.9,11,19.1c0.3,3.1,1,7.8,2,14c0.4,1.8,0.7,3.1,0.7,4c0,4-0.7,7.5-2,10.3
			c-1.7,3.8-4.3,5.7-7.9,5.7c-2,0-4-0.9-5.8-2.8c-1.9-1.9-2.8-3.8-2.8-5.8c0-1.5,0.3-3.6,1-6.5c0.7-2.9,1-5,1-6.5
			c0-15.2-5.1-22.9-15.2-22.9c-5.6,0-10.3,2.4-14.2,7.2c-3.8,4.8-5.7,10.1-5.7,15.8c0,8.1,4.8,16,14.5,23.7
			c8.9,6,17.8,11.9,26.8,17.9C192.7,930.1,197.5,936.7,197.5,943z"/>
		<path class="st6" d="M267.7,930.9c0,14.5-0.5,24.7-1.3,30.7c-0.6,3.5-2.9,5.2-7.1,5.2c-6.3,0-9.1-3.2-8.4-9.4
			c-5.6,2.7-11.5,4-17.5,4c-5.8,0-11.4-1.5-16.7-4.4c-6.3-3.5-9.4-7.9-9.4-13.3c0-5.3,3.6-10.2,10.8-14.8c6.5-4.2,12.7-6.2,18.4-6.2
			h14.3v-4c0.1-11.7-3.4-17.6-10.5-17.6c-8.9,0-13.3,4.1-13.3,12.4c0,2.8-1.6,4.2-4.7,4.2c-1.9,0-3.9-0.9-6-2.6
			c-2.1-1.7-3.1-3.6-3.1-5.5c0-6.3,2.2-11.5,6.7-15.5c4.5-4,9.9-6.1,16.2-6.1C257.1,887.9,267.7,902.2,267.7,930.9z M250.6,937
			c0-2.2-1.7-3.4-5.1-3.4c-14.1,0-21.1,3.3-21.1,10c0,3.6,3.1,5.4,9.3,5.4c3.8,0,7.4-1.1,10.8-3.2
			C248.6,943.4,250.6,940.5,250.6,937z"/>
		<path class="st6" d="M300.2,955c0,2-0.8,3.7-2.4,5.1c-1.6,1.4-3.5,2.1-5.7,2.1c-7.1,0-10.6-9.3-10.6-27.8c0-8.4,0.1-21.1,0.3-38
			s0.3-29.5,0.3-38c0-1.3-0.2-3.3-0.5-5.9c-0.3-2.6-0.5-4.5-0.5-5.7c3.7-2.5,6.6-3.7,8.8-3.7c2.5,0,4.8,0.8,7.1,2.4
			c2.2,1.6,3.4,3.7,3.4,6.2c0,1.2-0.3,2.7-0.8,4.4c-0.8,2.7-1.2,4.2-1.3,4.4c-1.5,7-2.2,16.9-2.2,29.7c0,20.4,0,30.8,0,31.4
			c0.3,14.2,1.5,24.1,3.5,29.7C299.9,952.9,300.2,954.1,300.2,955z"/>
		<path class="st6" d="M363.8,895c0,8.1-2.6,20.5-7.8,37.1c-6.1,19.1-12,28.7-17.7,28.7c-8.2,0-15.5-8-21.9-24.1
			c-3.9-10-7.1-21.7-9.6-35.1c-0.6-3.3-0.8-5.8-0.8-7.6c0-1.8,0.8-3.4,2.4-4.8c1.6-1.4,3.3-2.1,5.1-2.1c2.1,0,5.5,1.6,10,4.9
			c-0.8,2.6-1.2,4.8-1.2,6.6c0,6.1,1.5,14,4.5,23.8c3,9.8,6.2,17.2,9.7,22.1v0.5c4.1,0,7.3-7.6,9.6-22.9c1.6-10.5,2.4-20,2.4-28.7
			c0-1.7,0.9-3.1,2.6-4.4c1.7-1.2,3.4-1.9,5.1-1.9C361.2,887,363.8,889.7,363.8,895z"/>
		<path class="st6" d="M426.2,930.9c0,14.5-0.5,24.7-1.3,30.7c-0.6,3.5-2.9,5.2-7.1,5.2c-6.3,0-9.1-3.2-8.4-9.4
			c-5.6,2.7-11.5,4-17.5,4c-5.8,0-11.4-1.5-16.7-4.4c-6.3-3.5-9.4-7.9-9.4-13.3c0-5.3,3.6-10.2,10.8-14.8c6.5-4.2,12.7-6.2,18.4-6.2
			h14.3v-4c0.1-11.7-3.4-17.6-10.5-17.6c-8.9,0-13.3,4.1-13.3,12.4c0,2.8-1.6,4.2-4.7,4.2c-1.9,0-3.9-0.9-6-2.6
			c-2.1-1.7-3.1-3.6-3.1-5.5c0-6.3,2.2-11.5,6.7-15.5c4.5-4,9.9-6.1,16.2-6.1C415.6,887.9,426.2,902.2,426.2,930.9z M409.2,937
			c0-2.2-1.7-3.4-5.1-3.4c-14.1,0-21.1,3.3-21.1,10c0,3.6,3.1,5.4,9.3,5.4c3.8,0,7.4-1.1,10.8-3.2
			C407.2,943.4,409.2,940.5,409.2,937z"/>
		<path class="st6" d="M546,853.3c0,9.2-1.5,21.6-4.4,37.1c-2.1,10.9-6.1,24.3-12,40.1c-7.8,20.7-14.5,31-20.1,31
			c-5.6,0-10-0.8-13.2-2.5c-6.9-3.7-12.8-18.2-17.9-43.5c-2.8-17.1-5.7-34.2-8.6-51.3c-0.2-1.2-0.7-3-1.5-5.2
			c-0.6-0.6-1.1-1.2-1.6-1.9c-0.5-0.7-0.8-1.5-0.8-2.5c0-2.2,1.4-4.3,4.2-6.1c2.5-1.7,4.9-2.5,7.4-2.5c2.8,0,5.3,1,7.6,3.1
			c2.2,2.1,3.4,4.5,3.4,7.3c0,2-0.1,5.1-0.4,9.3c-0.3,4.2-0.4,7.3-0.4,9.3c0,9.2,1.4,20.3,4.2,33.2c5.2,24.1,9.4,36.1,12.7,36.1
			c2.1,0,4.2-1.7,6.2-5.2c5.3-8.9,10.1-22.4,14.3-40.5c4.2-17.3,6.2-31.6,6.2-42.8c0-2.6-0.8-4.5-2.4-5.8c-1.6-1.3-2.4-2.1-2.4-2.3
			c0-1.2,1.4-2.9,4.2-4.9c2.8-2,4.9-3,6.2-3c2.4,0,4.4,1.6,6.2,4.8C545.1,847.8,546,850.7,546,853.3z"/>
		<path class="st6" d="M577.5,894.6c0,2-0.5,4.9-1.3,8.6c-0.9,3.7-1.3,6.6-1.3,8.6v34.7c0,2.1,0.7,5.5,2,10.1
			c-1.7,2.6-3.6,3.9-5.6,3.9c-7.2,0-11.1-3.5-11.8-10.6c-1.1-13.2-1.7-23.1-1.7-29.7c0-11.1,0.4-20.5,1.3-28c0-0.6,0-1.1,0-1.7
			c0-2,1.6-3,4.7-3c2.8,0,5.6,0.6,8.4,1.7C575.7,890.5,577.5,892.3,577.5,894.6z M579,871c0,2.5-0.8,4.5-2.5,6.1
			c-1.7,1.6-3.8,2.4-6.2,2.4c-2.9,0-5.7-1-8.2-3s-3.8-4.5-3.8-7.4c0-2.5,0.9-4.5,2.6-6.1c1.7-1.6,3.9-2.4,6.5-2.4c3,0,5.7,1,8.1,3
			C577.9,865.5,579,868,579,871z"/>
		<path class="st6" d="M645.5,857c0,2.5-0.3,5.7-1,9.6c-0.9,5.3-1.5,8.4-1.7,9.4c-0.3,3.5-0.9,13.8-1.6,30.9
			c-0.7,17.1-1.1,26.5-1.1,28.3c0,10.8,1.2,18.9,3.5,24.3c-1.9,3.1-4.1,4.7-6.6,4.7c-2.6,0-4.9-1-6.9-3c-2-2-3.1-4.2-3.4-6.8
			c-5.3,4.8-10.7,7.3-16.2,7.3c-8.2,0-14.6-2.9-19.1-8.6c-4.2-5.2-6.2-12-6.2-20.4c0-9.9,2-20,6.1-30.2
			c5.2-12.9,11.9-19.4,20.2-19.4c4.9,0,10,2.2,15.2,6.6c0.6-5.3,0.8-18.8,0.8-40.5c0-2,1.5-3,4.6-3c3.6,0,6.7,0.9,9.4,2.7
			C644.2,850.7,645.5,853.4,645.5,857z M625.9,914.2c0-3.8-0.8-7.3-2.5-10.5c-2.1-3.8-5-5.7-8.4-5.7c-5.1,0-8.9,5-11.6,15
			c-2,7.2-3,14.3-3,21.3c0,10.5,3,15.7,9.1,15.7c6.3,0,10.9-4.7,13.7-14C625,929.7,625.9,922.4,625.9,914.2z"/>
		<path class="st6" d="M711.8,930.9c0,14.5-0.5,24.7-1.3,30.7c-0.6,3.5-2.9,5.2-7.1,5.2c-6.3,0-9.1-3.2-8.4-9.4
			c-5.6,2.7-11.5,4-17.5,4c-5.8,0-11.4-1.5-16.7-4.4c-6.3-3.5-9.4-7.9-9.4-13.3c0-5.3,3.6-10.2,10.8-14.8c6.5-4.2,12.7-6.2,18.4-6.2
			h14.3v-4c0.1-11.7-3.4-17.6-10.5-17.6c-8.9,0-13.3,4.1-13.3,12.4c0,2.8-1.6,4.2-4.7,4.2c-1.9,0-3.9-0.9-6-2.6
			c-2.1-1.7-3.1-3.6-3.1-5.5c0-6.3,2.2-11.5,6.7-15.5c4.5-4,9.9-6.1,16.2-6.1C701.2,887.9,711.8,902.2,711.8,930.9z M694.8,937
			c0-2.2-1.7-3.4-5.1-3.4c-14.1,0-21.1,3.3-21.1,10c0,3.6,3.1,5.4,9.3,5.4c3.8,0,7.4-1.1,10.8-3.2
			C692.7,943.4,694.8,940.5,694.8,937z"/>
		<path class="st6" d="M780.3,942.5c0,5.3-2.3,9.9-6.7,13.8c-5,4.3-11.6,6.4-19.9,6.4c-3.6,0.1-7.5-0.6-11.6-2.2
			c-13.5-5.1-20.2-9.2-20.2-12.3c0-4.9,3.5-7.4,10.6-7.4c1,0,2.1,0.1,3.2,0.2c0.3,3.4,3,6.1,8.1,8.1c4.4,1.8,8.6,2.5,12.7,2.2
			c3.3-0.2,4.9-1.4,4.9-3.5c0-0.3-0.1-0.8-0.3-1.5c-0.2-0.7-0.3-1.2-0.3-1.6c0-0.4-2.1-1.3-6.4-2.6c-4.8-1.5-7.5-2.3-8.1-2.5
			c-12.8-7.6-19.2-16.9-19.2-27.7c0-6.5,1.9-12.5,5.6-18c4.2-6.1,9.3-9.1,15.5-9.1c4.6,0,9.9,1.8,15.8,5.4
			c5.9,3.6,9.5,7.5,10.9,11.6c0.9,2.9,1.3,5.3,1.3,7.3c0,2-0.3,3.7-0.8,5.1c-0.7,1.7-1.3,3.4-2,5.1c-2.1,1.5-4.3,2.2-6.4,2.2
			c-1.1,0-3-0.7-5.7-2.1c-2.6-1.4-4-2.6-4-3.6c0-0.4,0.7-1.9,2-4.4c0.8-1.5,1.2-2.7,1.2-3.7c0-6.7-2.6-10.1-7.9-10.1
			c-3.1,0-5.6,2-7.3,6.1c-1.2,3.1-1.9,6.5-1.9,10.1c0,4.5,3.2,8.5,9.6,12.1c5.8,2.6,11.7,5.2,17.7,7.9
			C777.1,936.5,780.3,939.5,780.3,942.5z"/>
	</g>
</g>
</svg>
