<?xml version="1.0" encoding="utf-8"?>
<!-- Generator: Adobe Illustrator 24.1.3, SVG Export Plug-In . SVG Version: 6.00 Build 0)  -->
<svg version="1.1" id="Layer_1" xmlns="http://www.w3.org/2000/svg" xmlns:xlink="http://www.w3.org/1999/xlink" x="0px" y="0px"
	 viewBox="0 0 900 972" style="enable-background:new 0 0 900 972;" xml:space="preserve">
<style type="text/css">
	.st0{fill:url(#SVGID_1_);}
	.st1{fill:url(#SVGID_2_);}
	.st2{fill:url(#SVGID_3_);}
	.st3{fill:url(#SVGID_4_);}
	.st4{fill:url(#SVGID_5_);}
	.st5{fill:url(#SVGID_6_);}
	.st6{fill:#252525;}
</style>
<g>
	<g>
		<g>
			
				<linearGradient id="SVGID_1_" gradientUnits="userSpaceOnUse" x1="138.1077" y1="719.3397" x2="707.2621" y2="719.3397" gradientTransform="matrix(1 0 0 -1 0 972)">
				<stop  offset="0" style="stop-color:#940A00"/>
				<stop  offset="0" style="stop-color:#121365"/>
				<stop  offset="0.3397" style="stop-color:#3133B2"/>
			</linearGradient>
			<path class="st0" d="M424.1021,41.5549c0,0-73-55-169-18c0,0-76,28-103,100c0,0-62,138,75,230l64-67c0,0,31-30,64,4
				c0,0,23,19,16,45c0,0,24-8,46,17c0,0,19,15,15,43c0,0,24-7,44,16c0,0,21,16,16,45c0,0,24-6,40,11c0,0,14,12,20,27c0,0,10,1,27-19
				c0,0,16-15,6-36l-144-144c0,0-2-3,0-5l3-3c0,0,1-2,4,1l144,144c0,0,17,11,35-5l15-15c0,0,11-14,3-33l-144-144c0,0-2-2,0-4l3-3
				c0,0,2-2,4,0l146,146c0,0,13,6,25-1c0,0,24-14,28-32c0,0,1-12-2-18c0,0-3-8-8-13l-188-187c0,0-3-3-10-4c0,0-7-1-12,4l-64,62
				c0,0-75,71-139,16c0,0-4-4-1-8l142-148C425.1021,45.5549,426.1021,43.5549,424.1021,41.5549z"/>
		</g>
		<g>
			
				<linearGradient id="SVGID_2_" gradientUnits="userSpaceOnUse" x1="237.7188" y1="627.9451" x2="361.6638" y2="627.9451" gradientTransform="matrix(1 0 0 -1 0 972)">
				<stop  offset="0.0084" style="stop-color:#121365"/>
				<stop  offset="1" style="stop-color:#3133B2"/>
			</linearGradient>
			<path class="st1" d="M248.1021,340.5549l51-50c0,0,23-23,49,6c0,0,26,23,6,48l-53,53c0,0-23,23-50-6
				C251.1021,391.5549,223.1021,364.5549,248.1021,340.5549z"/>
			
				<linearGradient id="SVGID_3_" gradientUnits="userSpaceOnUse" x1="299.6911" y1="566.8155" x2="423.6361" y2="566.8155" gradientTransform="matrix(1 0 0 -1 0 972)">
				<stop  offset="0.0084" style="stop-color:#121365"/>
				<stop  offset="1" style="stop-color:#3133B2"/>
			</linearGradient>
			<path class="st2" d="M310.0744,401.6845l51-50c0,0,23-23,49,6c0,0,26,23,6,48l-53,53c0,0-23,23-50-6
				C313.0744,452.6845,285.0744,425.6845,310.0744,401.6845z"/>
			
				<linearGradient id="SVGID_4_" gradientUnits="userSpaceOnUse" x1="360.6348" y1="504.1936" x2="484.5798" y2="504.1936" gradientTransform="matrix(1 0 0 -1 0 972)">
				<stop  offset="0.0084" style="stop-color:#121365"/>
				<stop  offset="1" style="stop-color:#3133B2"/>
			</linearGradient>
			<path class="st3" d="M371.0181,464.3064l51-50c0,0,23-23,49,6c0,0,26,23,6,48l-53,53c0,0-23,23-50-6
				C374.0181,515.3064,346.0181,488.3064,371.0181,464.3064z"/>
			
				<linearGradient id="SVGID_5_" gradientUnits="userSpaceOnUse" x1="419.6071" y1="446.064" x2="543.5521" y2="446.064" gradientTransform="matrix(1 0 0 -1 0 972)">
				<stop  offset="0.0084" style="stop-color:#121365"/>
				<stop  offset="1" style="stop-color:#3133B2"/>
			</linearGradient>
			<path class="st4" d="M429.9904,522.436l51-50c0,0,23-23,49,6c0,0,26,23,6,48l-53,53c0,0-23,23-50-6
				C432.9904,573.436,404.9904,546.436,429.9904,522.436z"/>
			
				<linearGradient id="SVGID_6_" gradientUnits="userSpaceOnUse" x1="293.1021" y1="807.1378" x2="764.7596" y2="807.1378" gradientTransform="matrix(1 0 0 -1 0 972)">
				<stop  offset="0" style="stop-color:#121365"/>
				<stop  offset="0.2667" style="stop-color:#1F2084"/>
				<stop  offset="0.5442" style="stop-color:#292A9D"/>
				<stop  offset="0.7968" style="stop-color:#2F31AD"/>
				<stop  offset="1" style="stop-color:#3133B2"/>
			</linearGradient>
			<path class="st5" d="M293.1021,195.5549l141-145c0,0,46-40,103-45c0,0,88-9,158,60c0,0,67,59,69,117c0,0,10,66-48,142
				c0,0-1,0-2-4c0,0-4-11-12-18l-186-185c0,0-7-7-16-7c0,0-12-1-17,5l-70,66C413.1021,181.5549,346.1021,239.5549,293.1021,195.5549
				z"/>
		</g>
	</g>
	<g>
		<path class="st6" d="M86.1553,727.7014c0,17.6807-4.0488,33.6162-12.1455,47.8066
			c-9.6729,16.8916-22.6621,25.3369-38.9668,25.3369c-5.8477,0-10.9082-1.2393-15.1807-3.7109
			c-2.3623,2.4717-4.668,3.7109-6.917,3.7109c-1.3486,0-2.9248-0.7354-4.7227-2.2031c-2.251-6.3232-3.374-14.7363-3.374-25.2422
			c0-9.0352,0.2529-22.5879,0.7598-40.6582c0.5059-18.0703,0.7588-31.623,0.7588-40.6582c0-0.2246-0.0576-0.6191-0.1689-1.1836
			c-0.1133-0.5645-0.1689-1.0176-0.1689-1.3574c0-2.0322,0.7305-3.6689,2.1934-4.9131c1.46-1.2412,3.2051-1.8633,5.2295-1.8633
			c2.8096,0,5.3135,1.0117,7.5059,3.0361c2.1934,2.0244,3.0078,4.3857,2.4463,7.085c5.7354-8.4346,13.8877-12.6514,24.459-12.6514
			c12.8203,0,22.6592,4.8447,29.5195,14.5283C83.2295,703.3245,86.1553,714.302,86.1553,727.7014z M69.4551,727.0217
			c0-22.9805-6.7471-34.4727-20.2422-34.4727c-5.5107,0-10.9648,2.8184-16.3623,8.4502c-4.7236,4.958-7.957,10.3379-9.6992,16.1387
			c-1.7451,5.8008-2.6152,12.1924-2.6152,19.1777v36.3301c0,10.5898,4.4414,15.8848,13.3262,15.8848
			c7.9834,0,15.2373-4.1113,21.7607-12.335c5.3975-6.9844,9.1084-14.9258,11.1328-23.8262
			C68.5537,744.3723,69.4551,735.9221,69.4551,727.0217z"/>
		<path class="st6" d="M158.0137,764.4094c0,10.1211-2.5303,18.7812-7.5908,25.9766c-5.8486,8.208-13.6084,12.3145-23.2783,12.3145
			c-9.8975,0-17.375-3.374-22.4355-10.1211c-4.6123-5.959-6.916-14.0557-6.916-24.291c0-10.1201,2.5303-19.6777,7.5908-28.6758
			c5.8457-10.6826,13.4365-16.0254,22.7725-16.0254c2.9229,0,6.5791,1.2939,10.9648,3.8799
			C151.7139,735.0022,158.0137,747.3167,158.0137,764.4094z M143.1689,764.0715c0-17.2061-4.1611-25.8086-12.4824-25.8086
			c-5.9619,0-10.458,3.6562-13.4951,10.9648c-2.25,5.5107-3.373,11.752-3.373,18.7236c0,14.958,4.4404,22.4346,13.3262,22.4346
			c5.7354,0,10.0078-3.0908,12.8193-9.2773C142.0986,776.386,143.1689,770.7083,143.1689,764.0715z"/>
		<path class="st6" d="M228.8594,796.4592c-1.6865,2.5859-3.7695,3.8799-6.2412,3.8799c-1.9141,0-5.0605-1.126-9.4463-3.374v-2.0244
			c0-2.4717,0.0547-6.1279,0.168-10.9639c0.1113-4.834,0.1689-8.377,0.1689-10.6279c0-24.0635-3.5791-36.0977-10.7354-36.0977
			c-2.0137,0-4.3037,1.5762-6.876,4.7227c-7.9385,9.6729-11.9082,21.3125-11.9082,34.918c0,1.9131,0.3633,4.752,1.0967,8.5186
			c0.7295,3.7686,1.0967,6.6074,1.0967,8.5186c0,1.5762-0.7334,2.8672-2.1934,3.8799c-1.4629,1.0117-3.0361,1.5176-4.7236,1.5176
			c-6.7471,0-10.1201-4.2725-10.1201-12.8193v-35.2559c0-0.8984,0.1104-2.2188,0.3369-3.9639
			c0.2236-1.7422,0.3369-3.0625,0.3369-3.9639c0-1.3496-0.1973-3.3154-0.5898-5.9043c-0.3955-2.585-0.5908-4.4961-0.5908-5.7354
			c0-1.7969,1.0391-3.5127,3.1211-5.1445c2.0791-1.6289,3.9639-2.4453,5.6504-2.4453c2.4727,0,5.0029,1.4072,7.5908,4.2168
			l-0.5059,6.7471c4.1592-6.6338,9.2773-9.9521,15.3506-9.9521c3.9346,0,8.0967,1.3496,12.4824,4.0479
			c4.3857,2.6992,7.5908,5.7354,9.6152,9.1094c4.6094,8.5479,6.916,19.7939,6.916,33.7373v24.4589H228.8594z"/>
		<path class="st6" d="M301.0537,768.9631c0,14.5068-0.4502,24.7412-1.3486,30.7012c-0.5645,3.4844-2.9258,5.2295-7.085,5.2295
			c-6.2998,0-9.1094-3.1504-8.4346-9.4473c-5.624,2.6992-11.4707,4.0488-17.543,4.0488c-5.8486,0-11.415-1.4629-16.7002-4.3857
			c-6.2988-3.4844-9.4463-7.9277-9.4463-13.3262c0-5.2842,3.5977-10.2314,10.7959-14.8438
			c6.5205-4.1592,12.6514-6.2412,18.3867-6.2412h14.3379v-4.0176c0.1113-11.7158-3.373-17.5742-10.458-17.5742
			c-8.8848,0-13.3262,4.1191-13.3262,12.3555c0,2.7832-1.5762,4.1758-4.7227,4.1758c-1.9141,0-3.9092-0.8701-5.9883-2.6152
			c-2.083-1.7422-3.1211-3.5684-3.1211-5.4824c0-6.2959,2.248-11.4697,6.7471-15.5186c4.4971-4.0488,9.8945-6.0723,16.1943-6.0723
			C290.4824,725.9495,301.0537,740.2874,301.0537,768.9631z M284.0166,775.0364c0-2.248-1.6865-3.374-5.0605-3.374
			c-14.0586,0-21.085,3.3184-21.085,9.9521c0,3.6006,3.0918,5.3984,9.2773,5.3984c3.8223,0,7.4219-1.0674,10.7959-3.2051
			C281.9932,781.4465,284.0166,778.5237,284.0166,775.0364z"/>
		<path class="st6" d="M382.0195,737.2512c0,3.0361-4.6123,5.1738-13.8369,6.4102c-0.2217,2.4746-0.332,8.0967-0.332,16.8682
			v11.1328c0,2.251,0.3369,5.5664,1.0117,9.9521s1.0117,7.6494,1.0117,9.7842c0,1.7998-0.9014,3.4023-2.6982,4.8076
			c-1.8008,1.4072-3.6006,2.1084-5.3984,2.1084c-2.8125,0-5.1738-2.417-7.085-7.2539c-1.4629-3.7109-2.1924-7.3086-2.1924-10.7949
			v-35.7617c-5.1738-0.7852-8.1553-1.291-8.9404-1.5176c-2.9258-0.8994-4.3857-2.1934-4.3857-3.8799
			c0-0.4482,0.1104-0.9541,0.3369-1.5186c2.9238-4.1592,6.1836-6.2412,9.7842-6.2412c0.2236,0,0.5615,0,1.0117,0
			c0.4482,0.1133,0.7861,0.1689,1.0127,0.1689c2.3613,0,3.4844-2.7549,3.373-8.2656v-12.3145
			c-0.5635-1.2354-0.8428-2.3037-0.8428-3.2051c0-1.46,0.8613-2.7832,2.5879-3.9639s3.3682-1.7705,4.9287-1.7705
			c2.3379,0,4.5654,1.0957,6.6816,3.2891c2.1162,2.1924,3.1758,4.5283,3.1758,7c0,2.6992-0.4219,5.3721-1.2646,8.0127
			c-0.8438,2.6436-1.21,5.3711-1.0967,8.1816v0.6738C377.6338,730.0559,382.0195,732.7542,382.0195,737.2512z"/>
		<path class="st6" d="M443.4199,737.3987c0,3.4785-0.4219,8.7236-1.2646,15.7354c-0.8438,7.0127-1.2656,12.3135-1.2656,15.9033
			c0,3.1416,0.1396,7.8281,0.4219,14.0537c0.2793,6.2256,0.4219,10.8535,0.4219,13.8818c0,2.5801-2.1934,3.8721-6.5791,3.8721
			c-4.499,0-7.3662-2.1377-8.6025-6.4102c-4.2754,2.8125-8.4346,4.2168-12.4824,4.2168c-3.2637,0-6.9746-0.8721-11.1338-2.6143
			c-4.1611-1.7422-7.084-3.8506-8.7715-6.3252c-3.2627-4.7236-4.8916-12.3145-4.8916-22.7725c0-3.5977,0.1133-9.8945,0.3398-18.8926
			c0.3398-7.9844,0.4531-14.2256,0.3428-18.7246c3.4053-2.4717,6.2441-3.7109,8.5156-3.7109c5.4512,0,8.1758,2.6436,8.1758,7.9287
			c0,1.7998-0.2812,4.499-0.8428,8.0967c-0.5645,3.5996-0.8438,6.2988-0.8438,8.0967v23.7842c0,2.6992,0.7305,5.5117,2.1934,8.4346
			c1.7969,3.374,3.9346,5.0605,6.4092,5.0605c4.834,0,8.4346-3.0918,10.7959-9.2773c1.5742-4.2725,2.3623-9.4473,2.3623-15.5195
			v-20.2422c0-2.585-0.6748-5.79-2.0244-9.6152c2.8096-2.585,5.5088-3.8789,8.0967-3.8789c2.6992,0,5.1445,0.8428,7.3379,2.5244
			C442.3232,732.6887,443.4199,734.8206,443.4199,737.3987z"/>
		<path class="st6" d="M562.3398,727.8049c0,2.4746-0.1689,4.667-0.5059,6.5781c-4.3857,25.9775-16.7002,38.9658-36.9424,38.9658
			c-10.3477,0-19.625-2.6406-27.833-7.9277v3.542c-0.1133,7.5361,0.5615,12.71,2.0244,15.5195
			c2.1348,3.9375,3.2051,6.1855,3.2051,6.7471c0,2.251-0.8721,4.2168-2.6143,5.9043c-1.7451,1.6865-3.7402,2.5303-5.9883,2.5303
			c-5.0605,0-8.4922-1.8008-10.29-5.3984c-1.0117-2.1348-1.6865-6.1279-2.0244-11.9766c-0.2266-3.8213-0.3369-8.207-0.3369-13.1572
			c0-1.9111,0.2529-4.7783,0.7588-8.6025c0.5059-3.8223,0.7588-6.748,0.7588-8.7715v-11.4707
			c-0.1133-3.374,0.1113-8.3496,0.6748-14.9287c0.5615-6.5791,0.8438-11.4414,0.8438-14.5908v-15.1816
			c0-0.2246-0.5059-3.2607-1.5186-9.1094c2.8975-2.6992,5.6279-4.0479,8.1895-4.0479c3.0078,0,5.4033,1.0957,7.1846,3.2891
			c1.7822,2.1924,2.6758,4.8652,2.6758,8.0127c0,0.7881,0,1.5762,0,2.3613c7.4219-9.7842,16.8105-14.6758,28.1699-14.6758
			c10.6826,0,19.1172,3.9932,25.3027,11.9766c5.5088,7.1982,8.2656,16.3076,8.2656,27.3271c0,0.7881,0,1.9688,0,3.542
			C562.3398,725.8381,562.3398,727.0188,562.3398,727.8049z M546.9893,725.1057c0-7.7598-1.1807-14.3936-3.542-19.9053
			c-3.2627-7.4219-8.2656-11.1328-15.0127-11.1328c-8.6611,0-16.083,5.2871-22.2666,15.8564
			c-5.5117,9.2227-8.2656,18.5-8.2656,27.833c0,15.6318,7.8701,23.4473,23.6162,23.4473c8.4336,0,14.6172-3.6533,18.5547-10.9648
			c2.248-4.0488,4.3857-11.4121,6.4102-22.0977C546.8213,726.0071,546.9893,724.9954,546.9893,725.1057z"/>
		<path class="st6" d="M593.208,793.0852c0,2.0244-0.8164,3.7402-2.4453,5.1455c-1.6318,1.4043-3.5166,2.1084-5.6514,2.1084
			c-7.085,0-10.627-9.2783-10.627-27.833c0-8.4346,0.084-21.0859,0.2529-37.9541s0.2529-29.5195,0.2529-37.9541
			c0-1.3496-0.1689-3.3154-0.5059-5.9043c-0.3379-2.585-0.5059-4.4961-0.5059-5.7354c3.7109-2.4717,6.6338-3.7109,8.7715-3.7109
			c2.4717,0,4.834,0.8174,7.085,2.4463c2.248,1.6318,3.373,3.6846,3.373,6.1572c0,1.2383-0.2822,2.6982-0.8428,4.3857
			c-0.7881,2.6992-1.2393,4.1611-1.3496,4.3857c-1.4629,6.9736-2.1934,16.8682-2.1934,29.6885c0,20.3555,0,30.8135,0,31.375
			c0.3379,14.1699,1.5186,24.0664,3.543,29.6885C592.9258,790.9504,593.208,792.1868,593.208,793.0852z"/>
		<path class="st6" d="M661.1885,768.9631c0,14.5068-0.4512,24.7412-1.3496,30.7012c-0.5645,3.4844-2.9258,5.2295-7.085,5.2295
			c-6.2988,0-9.1084-3.1504-8.4336-9.4473c-5.625,2.6992-11.4707,4.0488-17.5439,4.0488c-5.8486,0-11.415-1.4629-16.6992-4.3857
			c-6.2998-3.4844-9.4463-7.9277-9.4463-13.3262c0-5.2842,3.5977-10.2314,10.7959-14.8438
			c6.5205-4.1592,12.6514-6.2412,18.3867-6.2412h14.3379v-4.0176c0.1104-11.7158-3.374-17.5742-10.459-17.5742
			c-8.8848,0-13.3252,4.1191-13.3252,12.3555c0,2.7832-1.5762,4.1758-4.7236,4.1758c-1.9131,0-3.9092-0.8701-5.9883-2.6152
			c-2.082-1.7422-3.1211-3.5684-3.1211-5.4824c0-6.2959,2.249-11.4697,6.748-15.5186c4.4961-4.0488,9.8945-6.0723,16.1934-6.0723
			C650.6162,725.9495,661.1885,740.2874,661.1885,768.9631z M644.1514,775.0364c0-2.248-1.6865-3.374-5.0605-3.374
			c-14.0586,0-21.0859,3.3184-21.0859,9.9521c0,3.6006,3.0918,5.3984,9.2783,5.3984c3.8213,0,7.4219-1.0674,10.7949-3.2051
			C642.127,781.4465,644.1514,778.5237,644.1514,775.0364z"/>
		<path class="st6" d="M729.6729,780.6028c0,5.2871-2.251,9.8975-6.748,13.832c-4.9492,4.2725-11.583,6.4102-19.9043,6.4102
			c-3.6006,0.1104-7.4805-0.6191-11.6396-2.1934c-13.4941-5.0605-20.2422-9.1641-20.2422-12.3135
			c0-4.9473,3.543-7.4219,10.6279-7.4219c1.0117,0,2.0791,0.0576,3.2051,0.168c0.3369,3.374,3.0361,6.0732,8.0967,8.0977
			c4.3857,1.7998,8.6025,2.5303,12.6514,2.1924c3.2598-0.2236,4.8916-1.4043,4.8916-3.542c0-0.3379-0.084-0.8438-0.2529-1.5186
			s-0.2529-1.207-0.2529-1.6025c0-0.3926-2.1377-1.2646-6.4102-2.6143c-4.8369-1.46-7.5352-2.3037-8.0967-2.5303
			c-12.8203-7.6465-19.2305-16.8682-19.2305-27.6641c0-6.5215,1.8555-12.5381,5.5664-18.0498
			c4.1592-6.0723,9.333-9.1084,15.5195-9.1084c4.6094,0,9.8682,1.7998,15.7715,5.3975c5.9043,3.6006,9.5312,7.4805,10.8809,11.6396
			c0.8984,2.9248,1.3486,5.3418,1.3486,7.2529c0,2.0244-0.2812,3.7109-0.8428,5.0605c-0.6748,1.6865-1.3496,3.374-2.0244,5.0605
			c-2.1377,1.4629-4.2754,2.1934-6.4102,2.1934c-1.125,0-3.0098-0.7012-5.6504-2.1094c-2.6436-1.4043-3.9648-2.6143-3.9648-3.626
			c0-0.4482,0.6748-1.9111,2.0244-4.3857c0.7852-1.4609,1.1807-2.6992,1.1807-3.7109c0-6.748-2.6436-10.1211-7.9277-10.1211
			c-3.1494,0-5.5664,2.0234-7.2539,6.0723c-1.2383,3.1494-1.8555,6.5234-1.8555,10.1211c0,4.499,3.2051,8.5479,9.6152,12.1455
			c5.8457,2.5879,11.75,5.2285,17.7119,7.9277C726.4678,774.5881,729.6729,777.5667,729.6729,780.6028z"/>
		<path class="st6" d="M823.46,797.303c-3.7822,2.3613-6.6729,3.542-8.6758,3.542c-1.4473,0-3.6719-0.7881-6.6738-2.3613
			c0-1.7979,0-4.8926,0-9.2783c0-3.9346,0-7.0264,0-9.2773c0-29.9121-2.4541-44.8701-7.3564-44.8701
			c-3.6797,0-6.6318,4.5547-8.8613,13.6631c-1.6709,6.6367-2.5068,12.7656-2.5068,18.3867v15.5195
			c0,0.7881,0.2803,1.9395,0.8438,3.458c0.5615,1.5176,0.8438,2.6729,0.8438,3.458c0,1.7998-0.957,3.4023-2.8682,4.8076
			c-1.9131,1.4072-3.7686,2.1084-5.5664,2.1084c-1.9131,0-3.8242-0.9541-5.7354-2.8682c-1.9131-1.9102-2.8672-3.7656-2.8672-5.5664
			v-31.375c0-12.707-1.4316-19.0615-4.291-19.0615c-0.459,0-1.4336,1.0703-2.9209,3.2051
			c-8.125,10.7959-12.1875,22.3799-12.1875,34.749c0,1.7998,0.2539,4.415,0.7598,7.8438c0.5059,3.4316,0.7588,5.9883,0.7588,7.6748
			c0,2.251-0.7041,4.1064-2.1084,5.5674c-1.4072,1.46-3.2344,2.1924-5.4824,2.1924c-2.5879,0-4.668-0.8984-6.2412-2.6934
			c-0.5645-0.7852-1.2393-3.4209-2.0244-7.9102c-0.6748-4.1514-1.0117-7.0137-1.0117-8.584v-36.6895
			c0-2.6934,0.6748-6.2832,2.0244-10.7715c1.6865-5.3848,3.4844-8.0781,5.3975-8.0781c2.248,0,4.2725,0.8564,6.0723,2.5645
			c1.7979,1.708,2.5859,3.666,2.3623,5.8691c3.2598-5.3975,7.4775-8.0967,12.6514-8.0967c6.4092,0,11.6387,4.2754,15.6875,12.8203
			c2.1348-5.0605,4.0479-8.5449,5.7354-10.459c2.8096-3.2598,6.2969-4.8916,10.458-4.8916c4.1592,0,8.376,2.1934,12.6514,6.5791
			c7.4219,7.5352,11.1328,20.4102,11.1328,38.6279v30.1956H823.46z"/>
		<path class="st6" d="M895.1514,768.9631c0,14.5068-0.4502,24.7412-1.3486,30.7012c-0.5645,3.4844-2.9258,5.2295-7.085,5.2295
			c-6.2998,0-9.1094-3.1504-8.4346-9.4473c-5.624,2.6992-11.4707,4.0488-17.543,4.0488c-5.8486,0-11.415-1.4629-16.7002-4.3857
			c-6.2988-3.4844-9.4463-7.9277-9.4463-13.3262c0-5.2842,3.5977-10.2314,10.7959-14.8438
			c6.5205-4.1592,12.6514-6.2412,18.3867-6.2412h14.3379v-4.0176c0.1113-11.7158-3.373-17.5742-10.458-17.5742
			c-8.8848,0-13.3262,4.1191-13.3262,12.3555c0,2.7832-1.5762,4.1758-4.7227,4.1758c-1.9141,0-3.9092-0.8701-5.9883-2.6152
			c-2.083-1.7422-3.1211-3.5684-3.1211-5.4824c0-6.2959,2.248-11.4697,6.7471-15.5186c4.4971-4.0488,9.8945-6.0723,16.1943-6.0723
			C884.5801,725.9495,895.1514,740.2874,895.1514,768.9631z M878.1143,775.0364c0-2.248-1.6865-3.374-5.0605-3.374
			c-14.0586,0-21.085,3.3184-21.085,9.9521c0,3.6006,3.0918,5.3984,9.2773,5.3984c3.8223,0,7.4219-1.0674,10.7959-3.2051
			C876.0908,781.4465,878.1143,778.5237,878.1143,775.0364z"/>
		<path class="st6" d="M197.4863,943.0139c0,6.8711-3.9932,12.1631-11.9766,15.8799c-6.2988,3.042-13.3262,4.5625-21.085,4.5625
			c-7.085,0-15.4082-1.5762-24.9658-4.7236c-11.8076-4.0479-17.7119-8.7715-17.7119-14.1689c0-2.0244,0.7305-3.7666,2.1934-5.2295
			c1.46-1.46,3.2051-2.1924,5.2295-2.1924c3.0361,0,5.8457,1.2383,8.4336,3.7109c4.3857,3.7109,6.7471,5.7354,7.085,6.0723
			c3.9346,2.251,11.0195,3.374,21.2539,3.374c9.1094,0,13.6641-2.0801,13.6641-6.2412c0-3.4844-4.2754-8.3213-12.8203-14.5068
			c-5.9619-3.8223-11.9209-7.6465-17.8809-11.4707c-7.6484-5.1719-13.2148-10.0635-16.6992-14.6758
			c-4.6123-6.0723-6.916-13.0439-6.916-20.917c0-9.8945,3.0361-18.7236,9.1084-26.4834
			c6.5205-8.5449,14.6182-12.8203,24.291-12.8203c8.3203,0,15.3496,2.2773,21.085,6.832s9.3887,10.9385,10.9648,19.1455
			c0.3369,3.1494,1.0117,7.8174,2.0244,14.001c0.4482,1.7998,0.6748,3.1494,0.6748,4.0488c0,4.0479-0.6748,7.4795-2.0244,10.2891
			c-1.6865,3.8252-4.3301,5.7354-7.9287,5.7354c-2.0234,0-3.9639-0.9297-5.8193-2.7939c-1.8555-1.8604-2.7832-3.8086-2.7832-5.8408
			c0-1.4678,0.3379-3.6416,1.0127-6.5205c0.6738-2.8779,1.0117-5.0498,1.0117-6.5176c0-15.2402-5.0605-22.8594-15.1816-22.8594
			c-5.625,0-10.3477,2.3955-14.1699,7.1816c-3.8242,4.7871-5.7344,10.0527-5.7344,15.7959c0,8.1104,4.833,15.9932,14.5068,23.6533
			c8.8818,5.9717,17.8223,11.9424,26.8203,17.9092C192.7051,930.1174,197.4863,936.7063,197.4863,943.0139z"/>
		<path class="st6" d="M267.6582,930.8997c0,14.5068-0.4512,24.7412-1.3496,30.7012c-0.5645,3.4844-2.9258,5.2295-7.085,5.2295
			c-6.2988,0-9.1084-3.1504-8.4336-9.4473c-5.625,2.6992-11.4707,4.0488-17.5439,4.0488c-5.8486,0-11.415-1.4629-16.6992-4.3857
			c-6.2998-3.4844-9.4463-7.9277-9.4463-13.3262c0-5.2842,3.5977-10.2314,10.7959-14.8438
			c6.5205-4.1592,12.6514-6.2412,18.3867-6.2412h14.3379v-4.0176c0.1104-11.7158-3.374-17.5742-10.459-17.5742
			c-8.8848,0-13.3252,4.1191-13.3252,12.3555c0,2.7832-1.5762,4.1758-4.7236,4.1758c-1.9131,0-3.9092-0.8701-5.9883-2.6152
			c-2.082-1.7422-3.1211-3.5684-3.1211-5.4824c0-6.2959,2.249-11.4697,6.748-15.5186c4.4961-4.0488,9.8945-6.0723,16.1934-6.0723
			C257.0859,887.886,267.6582,902.2239,267.6582,930.8997z M250.6211,936.9729c0-2.248-1.6865-3.374-5.0605-3.374
			c-14.0586,0-21.0859,3.3184-21.0859,9.9521c0,3.6006,3.0918,5.3984,9.2783,5.3984c3.8213,0,7.4219-1.0674,10.7949-3.2051
			C248.5967,943.3831,250.6211,940.4602,250.6211,936.9729z"/>
		<path class="st6" d="M300.2109,955.0217c0,2.0244-0.8164,3.7402-2.4453,5.1455c-1.6318,1.4043-3.5166,2.1084-5.6514,2.1084
			c-7.085,0-10.627-9.2783-10.627-27.833c0-8.4346,0.084-21.0859,0.2529-37.9541s0.2529-29.5195,0.2529-37.9541
			c0-1.3496-0.1689-3.3154-0.5059-5.9043c-0.3379-2.585-0.5059-4.4961-0.5059-5.7354c3.7109-2.4717,6.6338-3.7109,8.7715-3.7109
			c2.4717,0,4.834,0.8174,7.085,2.4463c2.248,1.6318,3.373,3.6846,3.373,6.1572c0,1.2383-0.2822,2.6982-0.8428,4.3857
			c-0.7881,2.6992-1.2393,4.1611-1.3496,4.3857c-1.4629,6.9736-2.1934,16.8682-2.1934,29.6885c0,20.3555,0,30.8135,0,31.375
			c0.3379,14.1699,1.5186,24.0664,3.543,29.6885C299.9287,952.887,300.2109,954.1233,300.2109,955.0217z"/>
		<path class="st6" d="M363.8057,894.97c0,8.0977-2.5889,20.4688-7.7598,37.1113c-6.0723,19.1191-11.9766,28.6758-17.7119,28.6758
			c-8.21,0-15.5186-8.0391-21.9287-24.1221c-3.9375-10.0078-7.1426-21.7021-9.6152-35.0859
			c-0.5635-3.2607-0.8438-5.791-0.8438-7.5908c0-1.7979,0.8145-3.4004,2.4463-4.8076c1.6289-1.4043,3.3447-2.1084,5.1445-2.1084
			c2.1357,0,5.4541,1.6318,9.9531,4.8916c-0.7881,2.5889-1.1807,4.7812-1.1807,6.5791c0,6.0723,1.4883,14.001,4.4697,23.7842
			c2.9785,9.7842,6.2119,17.1504,9.6992,22.0977v0.5059c4.1064,0,7.2988-7.6455,9.5811-22.9404
			c1.5967-10.459,2.3955-20.0156,2.3955-28.6768c0-1.6865,0.8623-3.1475,2.5859-4.3857c1.7236-1.2363,3.418-1.8555,5.0889-1.8555
			C361.2461,887.0422,363.8057,889.6858,363.8057,894.97z"/>
		<path class="st6" d="M426.2178,930.8997c0,14.5068-0.4512,24.7412-1.3496,30.7012c-0.5645,3.4844-2.9258,5.2295-7.085,5.2295
			c-6.2988,0-9.1084-3.1504-8.4336-9.4473c-5.625,2.6992-11.4707,4.0488-17.5439,4.0488c-5.8486,0-11.415-1.4629-16.6992-4.3857
			c-6.2998-3.4844-9.4463-7.9277-9.4463-13.3262c0-5.2842,3.5977-10.2314,10.7959-14.8438
			c6.5205-4.1592,12.6514-6.2412,18.3867-6.2412h14.3379v-4.0176c0.1104-11.7158-3.374-17.5742-10.459-17.5742
			c-8.8848,0-13.3252,4.1191-13.3252,12.3555c0,2.7832-1.5762,4.1758-4.7236,4.1758c-1.9131,0-3.9092-0.8701-5.9883-2.6152
			c-2.082-1.7422-3.1211-3.5684-3.1211-5.4824c0-6.2959,2.249-11.4697,6.748-15.5186c4.4961-4.0488,9.8945-6.0723,16.1934-6.0723
			C415.6455,887.886,426.2178,902.2239,426.2178,930.8997z M409.1807,936.9729c0-2.248-1.6865-3.374-5.0605-3.374
			c-14.0586,0-21.0859,3.3184-21.0859,9.9521c0,3.6006,3.0918,5.3984,9.2783,5.3984c3.8213,0,7.4219-1.0674,10.7949-3.2051
			C407.1562,943.3831,409.1807,940.4602,409.1807,936.9729z"/>
		<path class="st6" d="M545.9814,853.3049c0,9.2227-1.4629,21.5918-4.3857,37.1113c-2.1377,10.9092-6.1309,24.29-11.9766,40.1465
			c-7.7598,20.6924-14.4521,31.0381-20.0742,31.0381c-5.624,0-10.0098-0.8438-13.1572-2.5303
			c-6.8604-3.7109-12.8193-18.2178-17.8799-43.5205c-2.8125-17.0928-5.6807-34.1855-8.6035-51.2803
			c-0.2266-1.2363-0.7324-2.9785-1.5176-5.2295c-0.5645-0.5615-1.0967-1.1807-1.6025-1.8555
			c-0.5068-0.6748-0.7598-1.5176-0.7598-2.5303c0-2.248,1.4053-4.2725,4.2178-6.0723c2.4717-1.6875,4.9473-2.5303,7.4219-2.5303
			c2.8096,0,5.3398,1.041,7.5908,3.1201c2.248,2.083,3.373,4.5283,3.373,7.3379c0,2.0244-0.1416,5.1191-0.4209,9.2783
			c-0.2822,4.1611-0.4219,7.2529-0.4219,9.2773c0,9.2217,1.4043,20.2998,4.2168,33.2305
			c5.1709,24.0664,9.3887,36.0986,12.6514,36.0986c2.1348,0,4.2168-1.7422,6.2412-5.2295
			c5.2852-8.8818,10.0635-22.377,14.3389-40.4844c4.1582-17.3164,6.2412-31.5986,6.2412-42.8457
			c0-2.585-0.8174-4.5254-2.4463-5.8193c-1.6318-1.291-2.4463-2.0508-2.4463-2.2773c0-1.2363,1.4053-2.8672,4.2178-4.8916
			c2.8096-2.0244,4.8916-3.0361,6.2412-3.0361c2.3613,0,4.4414,1.6025,6.2412,4.8076
			C545.0801,847.8235,545.9814,850.72,545.9814,853.3049z"/>
		<path class="st6" d="M577.5234,894.6331c0,2.0244-0.4512,4.8916-1.3496,8.6025c-0.9014,3.7109-1.3496,6.5791-1.3496,8.6035v34.749
			c0,2.1367,0.6748,5.5107,2.0244,10.1211c-1.7031,2.5879-3.5771,3.8789-5.6221,3.8789c-7.1533,0-11.0723-3.542-11.7529-10.627
			c-1.125-13.1572-1.6865-23.0518-1.6865-29.6885c0-11.1328,0.4482-20.4658,1.3496-28.001c0-0.5615,0-1.123,0-1.6875
			c0-2.0234,1.5605-3.0361,4.6807-3.0361c2.7832,0,5.5693,0.5645,8.3584,1.6865
			C575.7393,890.4739,577.5234,892.2717,577.5234,894.6331z M579.041,871.0168c0,2.4756-0.8428,4.499-2.5303,6.0732
			c-1.6865,1.5762-3.7686,2.3613-6.2412,2.3613c-2.9258,0-5.6504-1.0117-8.1807-3.0361s-3.7959-4.4971-3.7959-7.4229
			c0-2.4717,0.8701-4.4961,2.6152-6.0723c1.7422-1.5732,3.9053-2.3613,6.4941-2.3613c3.0361,0,5.7354,0.9854,8.0967,2.9521
			C577.8604,865.4797,579.041,867.9807,579.041,871.0168z"/>
		<path class="st6" d="M645.501,857.0159c0,2.4756-0.3369,5.6807-1.0117,9.6152c-0.9014,5.2871-1.4629,8.4346-1.6875,9.4463
			c-0.3369,3.4873-0.8721,13.7773-1.6025,30.8691c-0.7324,17.0957-1.0957,26.542-1.0957,28.3389
			c0,10.7959,1.1807,18.8936,3.542,24.291c-1.9131,3.1475-4.1064,4.7236-6.5791,4.7236c-2.5879,0-4.8916-0.9863-6.916-2.9521
			c-2.0234-1.9668-3.1494-4.2441-3.373-6.832c-5.2871,4.8369-10.6855,7.2539-16.1943,7.2539c-8.21,0-14.5645-2.8682-19.0605-8.6035
			c-4.1621-5.1709-6.2422-11.9766-6.2422-20.4111c0-9.8936,2.0244-19.96,6.0732-30.1943
			c5.1709-12.9307,11.9189-19.3984,20.2422-19.3984c4.9473,0,10.0078,2.1934,15.1816,6.5791
			c0.5615-5.2852,0.8428-18.7793,0.8428-40.4844c0-2.0244,1.5186-3.0361,4.5547-3.0361c3.5977,0,6.7188,0.9014,9.3623,2.6982
			C644.1777,850.72,645.501,853.4182,645.501,857.0159z M625.9336,914.2004c0-3.8223-0.8438-7.3086-2.5303-10.459
			c-2.1377-3.8213-4.9502-5.7344-8.4346-5.7344c-5.0605,0-8.9395,5.0049-11.6387,15.0127
			c-2.0244,7.1982-3.0361,14.2822-3.0361,21.2539c0,10.459,3.0361,15.6875,9.1084,15.6875c6.2969,0,10.8516-4.665,13.6641-14.001
			C624.9766,929.6643,625.9336,922.4104,625.9336,914.2004z"/>
		<path class="st6" d="M711.793,930.8997c0,14.5068-0.4502,24.7412-1.3486,30.7012c-0.5645,3.4844-2.9258,5.2295-7.085,5.2295
			c-6.2998,0-9.1094-3.1504-8.4346-9.4473c-5.624,2.6992-11.4707,4.0488-17.543,4.0488c-5.8486,0-11.415-1.4629-16.7002-4.3857
			c-6.2988-3.4844-9.4463-7.9277-9.4463-13.3262c0-5.2842,3.5977-10.2314,10.7959-14.8438
			c6.5205-4.1592,12.6514-6.2412,18.3867-6.2412h14.3379v-4.0176c0.1113-11.7158-3.373-17.5742-10.458-17.5742
			c-8.8848,0-13.3262,4.1191-13.3262,12.3555c0,2.7832-1.5762,4.1758-4.7227,4.1758c-1.9141,0-3.9092-0.8701-5.9883-2.6152
			c-2.083-1.7422-3.1211-3.5684-3.1211-5.4824c0-6.2959,2.248-11.4697,6.7471-15.5186c4.4971-4.0488,9.8945-6.0723,16.1943-6.0723
			C701.2217,887.886,711.793,902.2239,711.793,930.8997z M694.7559,936.9729c0-2.248-1.6865-3.374-5.0605-3.374
			c-14.0586,0-21.085,3.3184-21.085,9.9521c0,3.6006,3.0918,5.3984,9.2773,5.3984c3.8223,0,7.4219-1.0674,10.7959-3.2051
			C692.7324,943.3831,694.7559,940.4602,694.7559,936.9729z"/>
		<path class="st6" d="M780.2773,942.5393c0,5.2871-2.251,9.8975-6.7471,13.832c-4.9502,4.2725-11.584,6.4102-19.9053,6.4102
			c-3.5996,0.1104-7.4795-0.6191-11.6387-2.1934c-13.4951-5.0605-20.2422-9.1641-20.2422-12.3135
			c0-4.9473,3.542-7.4219,10.627-7.4219c1.0127,0,2.0801,0.0576,3.2051,0.168c0.3379,3.374,3.0361,6.0732,8.0967,8.0977
			c4.3857,1.7998,8.6035,2.5303,12.6514,2.1924c3.2607-0.2236,4.8916-1.4043,4.8916-3.542c0-0.3379-0.084-0.8438-0.2529-1.5186
			c-0.168-0.6748-0.2529-1.207-0.2529-1.6025c0-0.3926-2.1377-1.2646-6.4102-2.6143c-4.8359-1.46-7.5352-2.3037-8.0967-2.5303
			c-12.8193-7.6465-19.2295-16.8682-19.2295-27.6641c0-6.5215,1.8555-12.5381,5.5664-18.0498
			c4.1592-6.0723,9.333-9.1084,15.5186-9.1084c4.6104,0,9.8682,1.7998,15.7725,5.3975c5.9033,3.6006,9.5303,7.4805,10.8799,11.6396
			c0.8984,2.9248,1.3496,5.3418,1.3496,7.2529c0,2.0244-0.2822,3.7109-0.8438,5.0605c-0.6748,1.6865-1.3496,3.374-2.0244,5.0605
			c-2.1367,1.4629-4.2744,2.1934-6.4092,2.1934c-1.126,0-3.0107-0.7012-5.6514-2.1094c-2.6436-1.4043-3.9639-2.6143-3.9639-3.626
			c0-0.4482,0.6748-1.9111,2.0244-4.3857c0.7852-1.4609,1.1807-2.6992,1.1807-3.7109c0-6.748-2.6436-10.1211-7.9287-10.1211
			c-3.1494,0-5.5664,2.0234-7.2529,6.0723c-1.2393,3.1494-1.8555,6.5234-1.8555,10.1211c0,4.499,3.2051,8.5479,9.6152,12.1455
			c5.8457,2.5879,11.749,5.2285,17.7109,7.9277C777.0723,936.5247,780.2773,939.5032,780.2773,942.5393z"/>
	</g>
</g>
</svg>
