<?xml version="1.0" encoding="utf-8"?>
<!-- Generator: Adobe Illustrator 24.1.3, SVG Export Plug-In . SVG Version: 6.00 Build 0)  -->
<svg version="1.1" id="Layer_1" xmlns="http://www.w3.org/2000/svg" xmlns:xlink="http://www.w3.org/1999/xlink" x="0px" y="0px"
	 viewBox="0 0 160 160" style="enable-background:new 0 0 160 160;" xml:space="preserve">
<style type="text/css">
	.Drop_x0020_Shadow{fill:none;}
	.Outer_x0020_Glow_x0020_5_x0020_pt{fill:none;}
	.Blue_x0020_Neon{fill:none;stroke:#8AACDA;stroke-width:7;stroke-linecap:round;stroke-linejoin:round;}
	.Chrome_x0020_Highlight{fill:url(#SVGID_1_);stroke:#FFFFFF;stroke-width:0.3629;stroke-miterlimit:1;}
	.Jive_GS{fill:#FFDD00;}
	.Alyssa_GS{fill:#A6D0E4;}
	.st0{fill:#E4E4E4;}
	.st1{fill:#D2D2D2;}
	.st2{fill:#02C19D;}
	.st3{fill:#F3F3F3;}
	.st4{fill:url(#SVGID_2_);}
	.st5{fill:url(#SVGID_3_);}
	.st6{fill:url(#SVGID_4_);}
</style>
<linearGradient id="SVGID_1_" gradientUnits="userSpaceOnUse" x1="-70" y1="-70.75" x2="-70" y2="-71.75">
	<stop  offset="0" style="stop-color:#656565"/>
	<stop  offset="0.618" style="stop-color:#1B1B1B"/>
	<stop  offset="0.6292" style="stop-color:#545454"/>
	<stop  offset="0.9831" style="stop-color:#3E3E3E"/>
</linearGradient>
<g>
	<path class="st0" d="M85.643,150H74.376c-1.867,0-3.38-1.513-3.38-3.38v-18.956h18.028v18.956C89.024,148.487,87.51,150,85.643,150
		z"/>
	<path class="st1" d="M80.573,127.663v18.956c0,1.867-1.513,3.38-3.38,3.38h8.451c1.867,0,3.38-1.513,3.38-3.38v-18.956H80.573z"/>
	<path class="st2" d="M80.01,125.613c-1.133,0-2.051,0.918-2.051,2.051v11.515c0,1.133,0.918,2.051,2.051,2.051
		c1.133,0,2.051-0.918,2.051-2.051v-11.515C82.06,126.531,81.142,125.613,80.01,125.613z"/>
	<path class="st3" d="M108.344,130.564H51.676c-2.554,0-4.624-2.07-4.624-4.624V116.8h65.915v9.139
		C112.967,128.493,110.897,130.564,108.344,130.564z"/>
	<path class="st0" d="M104.517,116.8v9.139c0,2.554-2.07,4.624-4.624,4.624h8.451c2.554,0,4.624-2.07,4.624-4.624V116.8H104.517z"/>
	<linearGradient id="SVGID_2_" gradientUnits="userSpaceOnUse" x1="32.7145" y1="65.2113" x2="127.3047" y2="65.2113">
		<stop  offset="0" style="stop-color:#940A00"/>
		<stop  offset="0" style="stop-color:#A00B04"/>
		<stop  offset="0.3706" style="stop-color:#FF1325"/>
	</linearGradient>
	<path class="st4" d="M114.351,120.423H45.668c-7.154,0-12.954-5.8-12.954-12.954V94.991L45.043,60.01L32.714,35.836V22.954
		C32.714,15.8,38.514,10,45.668,10h68.683c7.154,0,12.954,5.8,12.954,12.954v84.515
		C127.305,114.623,121.505,120.423,114.351,120.423L114.351,120.423z"/>
	<linearGradient id="SVGID_3_" gradientUnits="userSpaceOnUse" x1="105.9093" y1="65.2111" x2="127.3047" y2="65.2111">
		<stop  offset="0" style="stop-color:#940A00"/>
		<stop  offset="1" style="stop-color:#FF1325"/>
	</linearGradient>
	<path class="st5" d="M114.355,10h-8.446c7.152,0,12.95,5.801,12.95,12.958v84.507c0,7.156-5.798,12.958-12.95,12.958h8.446
		c7.152,0,12.95-5.801,12.95-12.958V22.958C127.305,15.801,121.507,10,114.355,10z"/>
	<path class="st3" d="M100.17,94.991H32.695V35.836h67.474c2.865,0,5.187,2.322,5.187,5.187v48.781
		C105.357,92.669,103.034,94.991,100.17,94.991z"/>
	<path class="st0" d="M100.17,35.836h-8.449c2.864,0,5.186,2.323,5.186,5.187v48.78c0,2.865-2.322,5.187-5.186,5.187h8.449
		c2.864,0,5.186-2.323,5.186-5.187v-48.78C105.357,38.159,103.035,35.836,100.17,35.836z"/>
	<linearGradient id="SVGID_4_" gradientUnits="userSpaceOnUse" x1="69.0239" y1="66.4791" x2="92.1223" y2="66.4791">
		<stop  offset="0" style="stop-color:#940A00"/>
		<stop  offset="0" style="stop-color:#A00B04"/>
		<stop  offset="0.3706" style="stop-color:#FF1325"/>
	</linearGradient>
	<path class="st6" d="M92.122,69.734c0,8.712-5.171,12.52-11.549,12.52c-6.378,0-11.549-3.808-11.549-12.52
		s8.54-19.029,11.549-19.029S92.122,61.022,92.122,69.734z"/>
	<g>
		<path class="st2" d="M41.418,55.009h20.845c1.133,0,2.051-0.918,2.051-2.051c0-1.133-0.918-2.051-2.051-2.051H41.418
			c-1.133,0-2.051,0.918-2.051,2.051C39.367,54.09,40.285,55.009,41.418,55.009z"/>
		<path class="st2" d="M62.263,59.358H41.418c-1.133,0-2.051,0.918-2.051,2.051c0,1.133,0.918,2.051,2.051,2.051h20.845
			c1.133,0,2.051-0.918,2.051-2.051C64.314,60.276,63.396,59.358,62.263,59.358z"/>
		<path class="st2" d="M62.263,67.809H41.418c-1.133,0-2.051,0.918-2.051,2.051s0.918,2.051,2.051,2.051h20.845
			c1.133,0,2.051-0.918,2.051-2.051S63.396,67.809,62.263,67.809z"/>
		<path class="st2" d="M53.883,76.259H41.418c-1.133,0-2.051,0.918-2.051,2.051s0.918,2.051,2.051,2.051h12.465
			c1.133,0,2.051-0.918,2.051-2.051S55.015,76.259,53.883,76.259z"/>
	</g>
</g>
</svg>
