<?xml version="1.0" encoding="utf-8"?>
<!-- Generator: Adobe Illustrator 24.1.3, SVG Export Plug-In . SVG Version: 6.00 Build 0)  -->
<svg version="1.1" id="Layer_1" xmlns="http://www.w3.org/2000/svg" xmlns:xlink="http://www.w3.org/1999/xlink" x="0px" y="0px"
	 viewBox="0 0 160 160" style="enable-background:new 0 0 160 160;" xml:space="preserve">
<style type="text/css">
	.st0{fill:#FDC9A6;}
	.st1{fill:#E6AF89;}
	.st2{fill:#CBCBCB;}
	.st3{fill:url(#SVGID_1_);}
	.st4{fill:url(#SVGID_2_);}
	.st5{fill:#FDFEFB;}
	.st6{fill:url(#SVGID_3_);}
	.st7{fill:url(#SVGID_4_);}
	.st8{fill:url(#SVGID_5_);}
</style>
<g id="flat">
	<path class="st0" d="M23.347,102.542v30.847h42.712v-30.847l1.233-1.644c3.82-5.094,5.886-11.289,5.886-17.657v-30.53
		l-45.085-1.186L23.347,102.542z"/>
	<path class="st1" d="M73.178,52.712v13.051c-2.621,1.966-6.339,1.435-8.305-1.186c-0.77-1.027-1.186-2.276-1.186-3.559v-8.554
		L73.178,52.712z"/>
	<path class="st2" d="M144.433,33.804L115.65,62.587L86.868,33.804c-2.615-2.615-4.084-6.162-4.084-9.86
		C82.784,16.243,89.026,10,96.727,10h0.001c3.698,0,7.245,1.469,9.86,4.084l9.062,9.063l9.063-9.063
		c2.615-2.615,6.161-4.084,9.859-4.084c7.701,0,13.944,6.243,13.944,13.944C148.517,27.642,147.048,31.189,144.433,33.804z"/>
	<path class="st1" d="M34.025,38.475L34.025,38.475c3.276,0,5.932,2.656,5.932,5.932v9.492c0,3.276-2.656,5.932-5.932,5.932l0,0
		c-3.276,0-5.932-2.656-5.932-5.932v-9.492C28.093,41.131,30.749,38.475,34.025,38.475z"/>
	<path class="st1" d="M45.89,40.847L45.89,40.847c3.276,0,5.932,2.656,5.932,5.932v9.492c0,3.276-2.656,5.932-5.932,5.932l0,0
		c-3.276,0-5.932-2.656-5.932-5.932V46.78C39.958,43.503,42.614,40.847,45.89,40.847z"/>
	<path class="st1" d="M57.754,43.22L57.754,43.22c3.276,0,5.932,2.656,5.932,5.932v9.492c0,3.276-2.656,5.932-5.932,5.932l0,0
		c-3.276,0-5.932-2.656-5.932-5.932v-9.492C51.822,45.876,54.478,43.22,57.754,43.22z"/>
	<path class="st1" d="M25.72,97.797C18.124,90.2,13.856,84.643,13.856,73.899v-1.964c0-3.312,0.406-6.611,1.21-9.824l1.163-4.654
		l1.594-11.155c0.447-3.13,3.128-5.455,6.289-5.455c3.509,0,6.354,2.844,6.354,6.354v22.121l5.932,2.966
		c7.998,4,13.051,12.176,13.051,21.119v4.39L25.72,97.797L25.72,97.797z"/>
	<path class="st1" d="M58.941,76.441H32.839c-1.311,0-2.373-1.062-2.373-2.373c0-1.311,1.062-2.373,2.373-2.373h26.102
		c1.311,0,2.373,1.062,2.373,2.373C61.314,75.378,60.251,76.441,58.941,76.441z"/>
	
		<linearGradient id="SVGID_1_" gradientUnits="userSpaceOnUse" x1="96.314" y1="120.8095" x2="131.907" y2="120.8095" gradientTransform="matrix(1 0 0 -1 0 162)">
		<stop  offset="0" style="stop-color:#940A00"/>
		<stop  offset="0" style="stop-color:#A19721"/>
		<stop  offset="0.3694" style="stop-color:#D6C92C"/>
	</linearGradient>
	<path class="st3" d="M131.907,35.118c-5.497,1.004-11.165,0.435-16.353-1.64c-6.128-2.452-12.898-2.79-19.24-0.962l18.983,18.51
		L131.907,35.118z"/>
	
		<linearGradient id="SVGID_2_" gradientUnits="userSpaceOnUse" x1="42.331" y1="52.339" x2="118.264" y2="52.339" gradientTransform="matrix(1 0 0 -1 0 162)">
		<stop  offset="0" style="stop-color:#940A00"/>
		<stop  offset="0" style="stop-color:#A19721"/>
		<stop  offset="0.3694" style="stop-color:#D6C92C"/>
	</linearGradient>
	<path class="st4" d="M62.5,150c-11.134-0.013-20.157-9.035-20.169-20.169v-5.932c0-1.311,1.062-2.373,2.373-2.373
		s2.373,1.062,2.373,2.373v5.932c0,8.518,6.905,15.424,15.424,15.424s15.424-6.905,15.424-15.424
		c0.013-11.134,9.035-20.157,20.169-20.169c8.514-0.01,15.414-6.909,15.424-15.424V71.695c0-1.311,1.062-2.373,2.373-2.373
		c1.311,0,2.373,1.062,2.373,2.373v22.542c-0.013,11.134-9.035,20.157-20.169,20.169c-8.514,0.01-15.414,6.909-15.424,15.424
		C82.657,140.965,73.634,149.987,62.5,150z"/>
	<path class="st5" d="M124.788,28.983c-1.311,0-2.373-1.062-2.373-2.373c0-0.629,0.25-1.233,0.695-1.678l2.373-2.373
		c0.927-0.927,2.429-0.927,3.356,0s0.927,2.429,0,3.356l-2.373,2.373C126.022,28.734,125.418,28.984,124.788,28.983L124.788,28.983z
		"/>
	<path class="st5" d="M131.907,21.864c-1.311,0-2.373-1.062-2.373-2.373c0-0.629,0.25-1.233,0.695-1.678l2.373-2.373
		c0.927-0.927,2.429-0.927,3.356,0c0.927,0.927,0.927,2.429,0,3.356l0,0l-2.373,2.373C133.14,21.615,132.536,21.865,131.907,21.864
		L131.907,21.864z"/>
	<linearGradient id="SVGID_3_" gradientUnits="userSpaceOnUse" x1="123.008" y1="84.7455" x2="127.754" y2="84.7455">
		<stop  offset="0" style="stop-color:#940A00"/>
		<stop  offset="0" style="stop-color:#121365"/>
		<stop  offset="0.3397" style="stop-color:#3133B2"/>
	</linearGradient>
	<path class="st6" d="M125.381,90.678c-1.311,0-2.373-1.062-2.373-2.373v-7.119c0-1.311,1.062-2.373,2.373-2.373
		c1.311,0,2.373,1.062,2.373,2.373v7.119C127.754,89.616,126.692,90.678,125.381,90.678z"/>
	<linearGradient id="SVGID_4_" gradientUnits="userSpaceOnUse" x1="123.008" y1="98.9825" x2="127.754" y2="98.9825">
		<stop  offset="0" style="stop-color:#940A00"/>
		<stop  offset="0" style="stop-color:#121365"/>
		<stop  offset="0.3397" style="stop-color:#3133B2"/>
	</linearGradient>
	<path class="st7" d="M125.381,102.542c-1.311,0-2.373-1.062-2.373-2.373v-2.373c0-1.311,1.062-2.373,2.373-2.373
		c1.311,0,2.373,1.062,2.373,2.373v2.373C127.754,101.48,126.692,102.542,125.381,102.542z"/>
	<g>
		<path class="st0" d="M23.347,102.542c-7.597-7.597-11.864-17.9-11.864-28.643v-1.964c0-3.312,0.406-6.611,1.21-9.824l1.163-4.654
			l1.594-11.155c0.447-3.13,3.128-5.455,6.289-5.455c3.509,0,6.354,2.844,6.354,6.354v22.121l5.932,2.966
			c7.998,4,13.051,12.176,13.051,21.119v4.39L23.347,102.542z"/>
		<path class="st0" d="M34.025,36.102L34.025,36.102c3.276,0,5.932,2.656,5.932,5.932v9.492c0,3.276-2.656,5.932-5.932,5.932l0,0
			c-3.276,0-5.932-2.656-5.932-5.932v-9.492C28.093,38.758,30.749,36.102,34.025,36.102z"/>
		<path class="st0" d="M45.89,38.475L45.89,38.475c3.276,0,5.932,2.656,5.932,5.932v9.492c0,3.276-2.656,5.932-5.932,5.932l0,0
			c-3.276,0-5.932-2.656-5.932-5.932v-9.492C39.958,41.131,42.614,38.475,45.89,38.475z"/>
		<path class="st0" d="M57.754,40.847L57.754,40.847c3.276,0,5.932,2.656,5.932,5.932v9.492c0,3.276-2.656,5.932-5.932,5.932l0,0
			c-3.276,0-5.932-2.656-5.932-5.932V46.78C51.822,43.503,54.478,40.847,57.754,40.847z"/>
		<path class="st0" d="M69.619,43.22L69.619,43.22c3.276,0,5.932,2.656,5.932,5.932v9.492c0,3.276-2.656,5.932-5.932,5.932l0,0
			c-3.276,0-5.932-2.656-5.932-5.932v-9.492C63.686,45.876,66.342,43.22,69.619,43.22z"/>
	</g>
	
		<linearGradient id="SVGID_5_" gradientUnits="userSpaceOnUse" x1="35.212" y1="42.847" x2="54.195" y2="42.847" gradientTransform="matrix(1 0 0 -1 0 162)">
		<stop  offset="0" style="stop-color:#940A00"/>
		<stop  offset="0" style="stop-color:#A19721"/>
		<stop  offset="0.3694" style="stop-color:#D6C92C"/>
	</linearGradient>
	<path class="st8" d="M35.212,114.407h18.983v9.492H35.212V114.407z"/>
	<path class="st2" d="M111.258,57.458h9.492v14.237h-9.492V57.458z"/>
</g>
</svg>
