<?xml version="1.0" encoding="utf-8"?>
<!-- Generator: Adobe Illustrator 24.1.3, SVG Export Plug-In . SVG Version: 6.00 Build 0)  -->
<svg version="1.1" id="Layer_1" xmlns="http://www.w3.org/2000/svg" xmlns:xlink="http://www.w3.org/1999/xlink" x="0px" y="0px"
	 viewBox="0 0 632 590" style="enable-background:new 0 0 632 590;" xml:space="preserve">
<style type="text/css">
	.Drop_x0020_Shadow{fill:none;}
	.Outer_x0020_Glow_x0020_5_x0020_pt{fill:none;}
	.Blue_x0020_Neon{fill:none;stroke:#8AACDA;stroke-width:7;stroke-linecap:round;stroke-linejoin:round;}
	.Chrome_x0020_Highlight{fill:url(#SVGID_1_);stroke:#FFFFFF;stroke-width:0.3629;stroke-miterlimit:1;}
	.Jive_GS{fill:#FFDD00;}
	.Alyssa_GS{fill:#A6D0E4;}
	.st0{fill:url(#SVGID_2_);}
	.st1{fill:url(#SVGID_3_);}
	.st2{fill:url(#SVGID_4_);}
	.st3{fill:url(#SVGID_5_);}
	.st4{fill:url(#SVGID_6_);}
	.st5{fill:url(#SVGID_7_);}
</style>
<linearGradient id="SVGID_1_" gradientUnits="userSpaceOnUse" x1="-367" y1="-58.0739" x2="-367" y2="-59.0739">
	<stop  offset="0" style="stop-color:#656565"/>
	<stop  offset="0.618" style="stop-color:#1B1B1B"/>
	<stop  offset="0.6292" style="stop-color:#545454"/>
	<stop  offset="0.9831" style="stop-color:#3E3E3E"/>
</linearGradient>
<g>
	<g>
		<linearGradient id="SVGID_2_" gradientUnits="userSpaceOnUse" x1="2.6741" y1="251.0315" x2="571.8285" y2="251.0315">
			<stop  offset="0" style="stop-color:#940A00"/>
			<stop  offset="0" style="stop-color:#A00B04"/>
			<stop  offset="0.3706" style="stop-color:#FF1325"/>
		</linearGradient>
		<path class="st0" d="M288.6685,39.9261c0,0-73-55-169-18c0,0-76,28-103,100c0,0-62,138,75,230l64-67c0,0,31-30,64,4
			c0,0,23,19,16,45c0,0,24-8,46,17c0,0,19,15,15,43c0,0,24-7,44,16c0,0,21,16,16,45c0,0,24-6,40,11c0,0,14,12,20,27c0,0,10,1,27-19
			c0,0,16-15,6-36l-144-144c0,0-2-3,0-5l3-3c0,0,1-2,4,1l144,144c0,0,17,11,35-5l15-15c0,0,11-14,3-33l-144-144c0,0-2-2,0-4l3-3
			c0,0,2-2,4,0l146,146c0,0,13,6,25-1c0,0,24-14,28-32c0,0,1-12-2-18c0,0-3-8-8-13l-188-187c0,0-3-3-10-4c0,0-7-1-12,4l-64,62
			c0,0-75,71-139,16c0,0-4-4-1-8l142-148C289.6685,43.9261,290.6685,41.9261,288.6685,39.9261z"/>
	</g>
	<g>
		<linearGradient id="SVGID_3_" gradientUnits="userSpaceOnUse" x1="102.2851" y1="342.4261" x2="226.2302" y2="342.4261">
			<stop  offset="0" style="stop-color:#940A00"/>
			<stop  offset="1" style="stop-color:#FF1325"/>
		</linearGradient>
		<path class="st1" d="M112.6685,338.9261l51-50c0,0,23-23,49,6c0,0,26,23,6,48l-53,53c0,0-23,23-50-6
			C115.6685,389.9261,87.6685,362.9261,112.6685,338.9261z"/>
		<linearGradient id="SVGID_4_" gradientUnits="userSpaceOnUse" x1="164.2575" y1="403.5557" x2="288.2026" y2="403.5557">
			<stop  offset="0" style="stop-color:#940A00"/>
			<stop  offset="1" style="stop-color:#FF1325"/>
		</linearGradient>
		<path class="st2" d="M174.6408,400.0557l51-50c0,0,23-23,49,6c0,0,26,23,6,48l-53,53c0,0-23,23-50-6
			C177.6408,451.0557,149.6408,424.0557,174.6408,400.0557z"/>
		<linearGradient id="SVGID_5_" gradientUnits="userSpaceOnUse" x1="225.2012" y1="466.1775" x2="349.1462" y2="466.1775">
			<stop  offset="0" style="stop-color:#940A00"/>
			<stop  offset="1" style="stop-color:#FF1325"/>
		</linearGradient>
		<path class="st3" d="M235.5845,462.6775l51-50c0,0,23-23,49,6c0,0,26,23,6,48l-53,53c0,0-23,23-50-6
			C238.5845,513.6775,210.5845,486.6775,235.5845,462.6775z"/>
		<linearGradient id="SVGID_6_" gradientUnits="userSpaceOnUse" x1="284.1735" y1="524.3071" x2="408.1186" y2="524.3071">
			<stop  offset="0" style="stop-color:#940A00"/>
			<stop  offset="1" style="stop-color:#FF1325"/>
		</linearGradient>
		<path class="st4" d="M294.5569,520.8071l51-50c0,0,23-23,49,6c0,0,26,23,6,48l-53,53c0,0-23,23-50-6
			C297.5569,571.8071,269.5569,544.8071,294.5569,520.8071z"/>
		<linearGradient id="SVGID_7_" gradientUnits="userSpaceOnUse" x1="157.6685" y1="163.2334" x2="629.3259" y2="163.2334">
			<stop  offset="0" style="stop-color:#940A00"/>
			<stop  offset="1" style="stop-color:#FF1325"/>
		</linearGradient>
		<path class="st5" d="M157.6685,193.9261l141-145c0,0,46-40,103-45c0,0,88-9,158,60c0,0,67,59,69,117c0,0,10,66-48,142c0,0-1,0-2-4
			c0,0-4-11-12-18l-186-185c0,0-7-7-16-7c0,0-12-1-17,5l-70,66C277.6685,179.9261,210.6685,237.9261,157.6685,193.9261z"/>
	</g>
</g>
</svg>
